<svg width="2202px" height="538px" xmlns="http://www.w3.org/2000/svg" xmlns:xlink="http://www.w3.org/1999/xlink">
  <defs>
    <path d="M115.2 14.4c76.2 0 132-3.2 132-7.2S191.4 0 115.2 0 0 3.2 0 7.2s39 7.2 115.2 7.2z" id="a"/>
    <path id="c" d="M103 72.1l114.7-6.8v22.6L103 95.6z"/>
    <filter x="-3.5%" y="-13.2%" width="107.0%" height="126.4%" filterUnits="objectBoundingBox" id="d">
      <feOffset dx="-7" dy="8" in="SourceAlpha" result="shadowOffsetInner1"/>
      <feComposite in="shadowOffsetInner1" in2="SourceAlpha" operator="arithmetic" k2="-1" k3="1" result="shadowInnerInner1"/>
      <feColorMatrix values="0 0 0 0 0.827965561 0 0 0 0 0.827965561 0 0 0 0 0.827965561 0 0 0 0.5 0" in="shadowInnerInner1"/>
    </filter>
    <path id="e" d="M94.4 98.2l121-4.8v23.8l-121 4.3z"/>
    <filter x="-3.3%" y="-14.2%" width="106.6%" height="128.5%" filterUnits="objectBoundingBox" id="f">
      <feOffset dx="-7" dy="8" in="SourceAlpha" result="shadowOffsetInner1"/>
      <feComposite in="shadowOffsetInner1" in2="SourceAlpha" operator="arithmetic" k2="-1" k3="1" result="shadowInnerInner1"/>
      <feColorMatrix values="0 0 0 0 0.827965561 0 0 0 0 0.827965561 0 0 0 0 0.827965561 0 0 0 0.5 0" in="shadowInnerInner1"/>
    </filter>
    <path id="g" d="M86.7 122.7l129.8-1.2v25.4l-129.8.5z"/>
    <filter x="-3.1%" y="-15.4%" width="106.2%" height="130.9%" filterUnits="objectBoundingBox" id="h">
      <feOffset dx="-7" dy="8" in="SourceAlpha" result="shadowOffsetInner1"/>
      <feComposite in="shadowOffsetInner1" in2="SourceAlpha" operator="arithmetic" k2="-1" k3="1" result="shadowInnerInner1"/>
      <feColorMatrix values="0 0 0 0 0.827965561 0 0 0 0 0.827965561 0 0 0 0 0.827965561 0 0 0 0.5 0" in="shadowInnerInner1"/>
    </filter>
    <path id="i" d="M81.4 151l133.9.7v26l-134-1.5z"/>
    <filter x="-3.0%" y="-15.0%" width="106.0%" height="129.9%" filterUnits="objectBoundingBox" id="j">
      <feOffset dx="-7" dy="8" in="SourceAlpha" result="shadowOffsetInner1"/>
      <feComposite in="shadowOffsetInner1" in2="SourceAlpha" operator="arithmetic" k2="-1" k3="1" result="shadowInnerInner1"/>
      <feColorMatrix values="0 0 0 0 0.827965561 0 0 0 0 0.827965561 0 0 0 0 0.827965561 0 0 0 0.5 0" in="shadowInnerInner1"/>
    </filter>
    <path id="k" d="M73.7 183.9l141 1.8v26.2l-141-3.8z"/>
    <filter x="-2.8%" y="-14.3%" width="105.7%" height="128.6%" filterUnits="objectBoundingBox" id="l">
      <feOffset dx="-7" dy="8" in="SourceAlpha" result="shadowOffsetInner1"/>
      <feComposite in="shadowOffsetInner1" in2="SourceAlpha" operator="arithmetic" k2="-1" k3="1" result="shadowInnerInner1"/>
      <feColorMatrix values="0 0 0 0 0.827965561 0 0 0 0 0.827965561 0 0 0 0 0.827965561 0 0 0 0.5 0" in="shadowInnerInner1"/>
    </filter>
    <path d="M4.5 2.3l.7-.6-.7-.7a4 4 0 0 0-1-.5L2.2.7l.6-.4C1.3 0 0 .6 0 .6s.7 1.3 1.8 2.2c1.2.8 3 1 3 1s1-.8.5-1.8l-.8.3" id="m"/>
    <path d="M1.7 2L2 3.4A5 5 0 0 0 3.7 3l.4-2L4.5 3C6.5 2 8.8.6 8.8.6S6.2-.4 3.5.4C.8 1.1 0 2.5 0 2.5s.5.6 1.6.8V2" id="n"/>
    <path d="M1.2 19.3c1.3 0 1.1-.5 1.1-.5S2.5 8 2 4.3c-.5-3.8-1-4-1-4L.2.4s.9 10.8-.1 18c0 .6-.2.8 1.1.8z" id="o"/>
    <path d="M5 2.2l1.2.6.6-.1h.7l-.4-.8.9.7 1.3-.1S7.9.4 6.3.1h-.7L5 .4l.1-.5C4.4 0 3.6.2 3 .5l-.7 1.3.2-1c-.2 0-.4.2-.6.4C.6 2.2.2 3.9.2 3.9c2.4 1 4.2-.3 5.6-1l-.7-.7" id="p"/>
    <path d="M7 1.5C5.5-.3 2 0 .2.8c0 0 .5 1 3.2 1.7l.6.2.7-1-.4 1 1.4.8.8-.8L6.2 4l1.2 1s1-1.7-.4-3.4" id="q"/>
    <path d="M3.2 4.4l1.3.7c.4-.3.7-.8 1-1.2L4.8 3l1 .7C6.4 2.7 7 1.6 7.2.4c0 0-2 0-3.7 1.4h1L3.2 2A6.4 6.4 0 0 0 2 3.3l1-.2-1.1.6-.5.8.9-.2-1 .4A6 6 0 0 0 1 6.1v1.3S3.4 6.8 3.9 6l.5-.6-1-1" id="r"/>
    <path d="M1.2 2.8l-1 .5.5 1.2.8 1.7.9-.5-.7.7.9 1.7S3.6 7.5 4 6l-.3-.7.5.1.1-.9c0-.7-.1-1.4-.5-2l-1-.4.9.2C2.7 1 1 .1 0 .2v2.7l1.1-.1" id="s"/>
    <path d="M7.1 3.6l1.1-1A6.5 6.5 0 0 0 5.6.8l-2.2.3L4.5.5C2.2 0 .1.9.1.9s1 2 2.8 3.4c1.9 1.4 4.8 1.5 4.8 1.5s1.5-1 .8-2.7l-1.4.5" id="t"/>
    <path d="M2.6 3.1l.8 2.1A8.3 8.3 0 0 0 5.9 5v-.2l.7-3 .6 2.8C10.4 3.2 14 .9 14 .9S10-.5 5.6.6C1.3 1.8.1 4 .1 4s.7 1 2.5 1.2v-2" id="u"/>
    <path d="M2 29.9c2 0 1.7-.8 1.7-.8S4 12.5 3.2 6.7C2.4.8 1.5.4 1.5.4L.3.8s1.5 16.8-.2 28c0 .8-.3 1 1.8 1z" id="v"/>
    <path d="M8 3.3l2 1.1a62.5 62.5 0 0 1 2-.3L11.3 3l1.4 1 2.2-.1S12.6.6 10.2.2L9 0 8 .8l.2-.7C7 0 5.8.3 4.7.8l-1 2L4 1.2l-1 .6A8.1 8.1 0 0 0 .3 6c4 1.5 6.7-.4 9-1.4L8.2 3.3" id="w"/>
    <path d="M11.1 2.3C9-.5 3.3.2.3 1.3c0 0 .9 1.5 5 2.5l1 .3 1.3-1.5-.8 1.7c.9.3 1.6.8 2.3 1.2l1.3-1.2L10 6c1.2.8 2 1.6 2 1.6S13.3 5 11 2.3" id="x"/>
    <path d="M5.2 6.8l2 1.1c.6-.5 1.1-1.2 1.7-2L7.5 4.8l1.6 1c1.1-1.5 2.2-3.3 2.4-5 0 0-3 0-5.9 2h1.5L5.2 3a10.2 10.2 0 0 0-2 2l1.6-.3-1.8.9-.7 1.2 1.3-.3-1.5.7a9 9 0 0 0-.5 2.2l.1 2s3.6-1 4.4-2.2l.8-1-1.7-1.5" id="y"/>
    <path d="M2 4.3L.4 5 1.1 7l1.4 2.6 1.3-.8L2.7 10A60 60 0 0 0 4 12.6s1.5-1 2.3-3.3l-.5-1h.8L7 7c.1-1.1-.2-2.1-.8-3l-1.6-.8 1.3.4C4.3 1.5 1.6 0 .1.3v.2c0 .6-.2 2.1.2 4L2 4.2" id="z"/>
    <path d="M14.5 7.1l2.3-1.8a13.4 13.4 0 0 0-5.3-3.7L7 2.2 9.3 1c-5-1-9.2.7-9.2.7s2 4.2 5.8 7a21 21 0 0 0 9.7 3s3.2-2.2 1.8-5.4l-2.9.8" id="A"/>
    <path d="M5.4 6.3l1.4 4.2a17 17 0 0 0 5.2-.7v-.3l1.4-6L14.6 9c6.6-2.5 14-7.2 14-7.2S20.1-1 11.3 1.3C2.7 3.5.1 7.8.1 7.8s1.4 2 5.1 2.5l.2-4" id="C"/>
    <path d="M2.7 60.1c3.1 0 2.6-1.5 2.6-1.5s.3-33.4-.8-45.1C3.4 1.7 2.2.7 2.2.7l-1.8 1s2 33.7-.3 56.1c0 1.7-.4 2.3 2.6 2.3z" id="E"/>
    <path d="M16.5 6.7L20.2 9l2-.5 2.2-.2L23 6 26 8l4.3-.2S25.6 1.1 20.8.4L18.1 0l-1.7 1.5.3-1.5c-2.4.1-4.8.6-7 1.5l-2.1 4L8 2.4c-.7.3-1.4.8-2 1.3C1.9 7 .7 12 .7 12c8 3 13.6-.8 18.3-2.7l-2.5-2.6" id="G"/>
    <path d="M22.7 4.5C18-1 6.7.3.6 2.5c0 0 1.8 3.1 10.3 5.2l2 .6 2.5-3.1-1.5 3.5c1.7.7 3.3 1.5 4.6 2.3l2.7-2.4L20 12c2.5 1.7 4 3.3 4 3.3s3.2-5.2-1.4-10.8" id="I"/>
    <path d="M8.7 13.8l4.3 2.1c1-1 2.1-2.4 3.3-3.9l-2.9-2.5 3.3 2c2.2-3 4.4-6.6 4.9-10.2 0 0-6.3.2-12 4.3l3-.3-3.8.9a20.6 20.6 0 0 0-4 4.2L8 9.7l-3.7 1.7c-.6 1-1 1.7-1.3 2.5l2.7-.5-3 1.4c-1 2.5-1.2 4.4-1.2 4.4l.3 3.9s7.3-2 8.9-4.3l1.7-2.1-3.6-3" id="K"/>
    <path d="M4 8.6l-3 1.6c.2 1.3.7 2.5 1.3 3.8L5 19.3l2.7-1.6L5.4 20c1.7 3.2 3 5.2 3 5.2s3-2 4.7-6.6l-1.1-2 1.7.2.4-2.8c.1-2.2-.5-4.3-1.7-6.2L9.1 6.5l2.8.7C8.9 2.9 3.3.2.3.6l-.1.5C0 2.2-.2 5.3.6 9L4 8.6" id="M"/>
    <path d="M4.5 2.3l.7-.6-.7-.7a4 4 0 0 0-1-.5L2.2.7l.6-.4C1.3 0 0 .6 0 .6s.7 1.3 1.8 2.2c1.2.8 3 1 3 1s1-.8.5-1.8l-.8.3" id="O"/>
    <path d="M1.7 2L2 3.4A5 5 0 0 0 3.7 3l.4-2L4.5 3C6.5 2 8.8.6 8.8.6S6.2-.4 3.5.4C.8 1.1 0 2.5 0 2.5s.5.6 1.6.8V2" id="P"/>
    <path d="M1.2 19.3c1.3 0 1.1-.5 1.1-.5S2.5 8 2 4.3c-.5-3.8-1-4-1-4L.2.4s.9 10.8-.1 18c0 .6-.2.8 1.1.8z" id="Q"/>
    <path d="M5 2.2l1.2.6.6-.1h.7l-.4-.8.9.7 1.3-.1S7.9.4 6.3.1h-.7L5 .4l.1-.5C4.4 0 3.6.2 3 .5l-.7 1.3.2-1c-.2 0-.4.2-.6.4C.6 2.2.2 3.9.2 3.9c2.4 1 4.2-.3 5.6-1l-.7-.7" id="R"/>
    <path d="M7 1.5C5.5-.3 2 0 .2.8c0 0 .5 1 3.2 1.7l.6.2.7-1-.4 1 1.4.8.8-.8L6.2 4l1.2 1s1-1.7-.4-3.4" id="S"/>
    <path d="M3.2 4.4l1.3.7c.4-.3.7-.8 1-1.2L4.8 3l1 .7C6.4 2.7 7 1.6 7.2.4c0 0-2 0-3.7 1.4h1L3.2 2A6.4 6.4 0 0 0 2 3.3l1-.2-1.1.6-.5.8.9-.2-1 .4A6 6 0 0 0 1 6.1v1.3S3.4 6.8 3.9 6l.5-.6-1-1" id="T"/>
    <path d="M1.2 2.8l-1 .5.5 1.2.8 1.7.9-.5-.7.7.9 1.7S3.6 7.5 4 6l-.3-.7.5.1.1-.9c0-.7-.1-1.4-.5-2l-1-.4.9.2C2.7 1 1 .1 0 .2v2.7l1.1-.1" id="U"/>
    <path d="M6.7 3.3l1-.9-1-1L5.3.8l-2 .3 1-.6C2 0 0 .8 0 .8S1 2.7 2.7 3.9a9.7 9.7 0 0 0 4.5 1.5s1.5-1 .8-2.5l-1.3.4" id="V"/>
    <path d="M2.5 2.9L3 4.8a8 8 0 0 0 2.4-.3v-.1l.7-2.8.5 2.5C9.7 3 13.2.8 13.2.8S9.3-.5 5.2.6c-4 1-5.1 3-5.1 3s.6.9 2.3 1.1V3" id="W"/>
    <path d="M1.8 27.5c1.4 0 1.1-.7 1.1-.7s.2-15.3-.3-20.6C2 .8 1.6.3 1.6.3L.8.8s1 15.4-.1 25.7c0 .7-.2 1 1.1 1z" id="X"/>
    <path d="M7.6 3l1.7 1 1-.1 1-.2-.7-1 1.3 1 2-.1S11.8.6 9.6.2L8.3 0l-.8.7.2-.7c-1 0-2.2.2-3.3.6l-1 1.8.3-1.4a7 7 0 0 0-.9.6A7.5 7.5 0 0 0 .3 5.5C4 7 6.6 5.1 8.8 4.3L7.6 3" id="Y"/>
    <path d="M10.5 2C8.3-.3 3 .2.3 1.2c0 0 .8 1.5 4.7 2.4l1 .3 1-1.4L6.5 4l2.1 1 1.3-1-.5 1.5L11 7s1.5-2.4-.6-5" id="Z"/>
    <path d="M4.9 6.3l2 1c.4-.5 1-1.1 1.4-1.8L7 4.3l1.5 1c1-1.4 2-3 2.3-4.7 0 0-2.9 0-5.5 2l1.3-.2-1.7.4a9.5 9.5 0 0 0-1.8 2l1.4-.4-1.7.8-.6 1.2L3.4 6 2 6.8c-.4 1.1-.5 2-.5 2l.1 1.8s3.4-1 4.1-2l.8-1L5 6.3" id="aa"/>
    <path d="M1.9 4l-1.5.7.7 1.7 1.2 2.4 1.3-.7-1.1 1a55 55 0 0 0 1.4 2.5s1.4-1 2.1-3l-.5-1 .8.1.2-1.3c0-1-.2-2-.8-2.8L4.2 3l1.3.3C4 1.3 1.5 0 0 .3v.2c0 .5-.2 2 .2 3.6l1.6-.2" id="ab"/>
    <path d="M271.5 231.1c0 1.8-1.5 1.5 6.3 4 7.8 2.3 9.7 1.1 20.5 6.2a99 99 0 0 0 49.3 3.3c9.9-3.3 21.7-5.7 47.9-9.6 26.2-3.9 44.7-36.4 44.7-41.7 0-5.3.4-25.1-5.5-28-5.9-2.7-21.7-5.5-26.5-2.7-4.8 2.8 5 9.5-8.9 7.7-13.8-1.8-16 10.4-23 10.4s-9.2 9.6-12.4 18.6c-3.2 9-15-6.6-19.4 0-4.4 6.7-9.4 6.1-14.2 8.3-4.7 2.2-8.4 2.2-14.8 2.2-6.3 0-9 1-13.1 5-4.1 3.9-7.2 6.5-10.4 8.7-3.2 2.3-11.4.7-14.2 2.3-2.7 1.6-6.3 3.6-6.3 5.3z" id="ac"/>
    <path d="M25.8 12.7l4-3.2c-1-1.2-2.2-2.5-4-3.8A23.7 23.7 0 0 0 20.4 3l-8 1 4-2.2C7.8 0 .2 3.1.2 3.1s3.6 7.4 10.4 12.3c6.7 4.9 17 5.5 17 5.5s5.8-4 3.2-9.6l-5 1.4" id="ae"/>
    <path d="M9.5 11.3l2.6 7.4a30.2 30.2 0 0 0 9.2-1.2V17c.3-.8 2.5-10.6 2.5-10.6L26 16C37.7 11.6 50.7 3.2 50.7 3.2s-14.9-5-30.4-1C4.8 6.4.2 14 .2 14s2.5 3.5 9 4.5l.3-7.1" id="ag"/>
    <path d="M4.6 106.3c4.4 0 3.7-2.7 3.7-2.7S8.8 44.1 7 23.2C5.5 2.2 3.7.5 3.7.5L1.2 2.2s3 60-.4 100c0 3-.6 4.1 3.8 4.1z" id="ai"/>
    <path d="M28.4 12l6.7 3.8c1.2-.4 2.3-.6 3.4-.8l4-.4-2.5-4 5.1 3.7c5.2-.4 7.7-.4 7.7-.4S44.5 1.9 36.1.7C34.5.4 32.9.3 31.3.2L28.2 3l.6-2.7A35 35 0 0 0 16.2 3l-3.6 7 1-5.7c-1.3.7-2.5 1.4-3.6 2.3-7.5 5.9-9.6 15-9.6 15 14 5.3 24.1-1.5 32.6-4.9L28.4 12" id="ak"/>
    <path d="M40.3 8.1C32-1.7 11.9.5 1 4.3c0 0 3.2 5.7 18.4 9.5l3.6 1 4.3-5.6-2.6 6.3c3 1.2 5.8 2.6 8.2 4.1l4.7-4.3-2 6.1c4.4 3 7.1 5.8 7.1 5.8s5.8-9.3-2.4-19" id="am"/>
    <path d="M15.4 24.5l7.6 4c1.8-2 3.9-4.4 5.9-7l-5.1-4.6 5.8 3.6c4-5.4 7.8-11.8 8.7-18.2 0 0-11.1.3-21.2 7.6l5.1-.4-6.6 1.5a36.7 36.7 0 0 0-7 7.6l5.5-1.4-6.6 3.1-.1.1c-1 1.5-1.7 3-2.3 4.4l4.8-1-5.4 2.6c-1.7 4.4-2 7.8-2 7.8l.5 7s13-3.7 15.8-7.8c.5-.8 1.7-2 3-3.7l-6.4-5.2" id="ao"/>
    <path d="M7.1 15.4l-5.5 2.8c.6 2.2 1.4 4.5 2.5 6.8 1.7 3.5 3.3 6.7 4.8 9.4l4.8-3-4.1 4.4c3 5.7 5.3 9.3 5.3 9.3s5.5-3.6 8.4-11.7l-2-3.8 3 .5c.3-1.6.6-3.2.7-5 .3-4-1-7.7-3-11l-5.8-2.5 5 1.2C15.6 5.2 5.7.4.3 1.1V2C0 4-.4 9.5 1 16l6-.6" id="aq"/>
    <path d="M14.5 7.1l2.3-1.8a13.4 13.4 0 0 0-5.3-3.7L7 2.2 9.3 1c-5-1-9.2.7-9.2.7s2 4.2 5.8 7a21 21 0 0 0 9.7 3s3.2-2.2 1.8-5.4l-2.9.8" id="as"/>
    <path d="M5.4 6.3l1.4 4.2a17 17 0 0 0 5.2-.7v-.3l1.4-6L14.6 9c6.6-2.5 14-7.2 14-7.2S20.1-1 11.3 1.3C2.7 3.5.1 7.8.1 7.8s1.4 2 5.1 2.5l.2-4" id="au"/>
    <path d="M2.6 60.1c3 0 2.6-1.5 2.6-1.5s.3-33.4-.8-45.1C3.3 1.7 2 .7 2 .7l-1.8 1S2.4 35.4 0 57.8c0 1.7-.4 2.3 2.6 2.3z" id="aw"/>
    <path d="M16.5 6.7L20.2 9l2-.5 2.2-.2L23 6 26 8l4.3-.2S25.6 1.1 20.8.4L18.1 0l-1.7 1.5.3-1.5c-2.4.1-4.8.6-7 1.5l-2.1 4L8 2.4c-.7.3-1.4.8-2 1.3C1.9 7 .7 12 .7 12c8 3 13.6-.8 18.3-2.7l-2.5-2.6" id="ay"/>
    <path d="M22.7 4.5C18-1 6.7.3.6 2.5c0 0 1.8 3.1 10.3 5.2l2 .6 2.5-3.1-1.5 3.5c1.7.7 3.3 1.5 4.6 2.3l2.7-2.4L20 12c2.5 1.7 4 3.3 4 3.3s3.2-5.2-1.4-10.8" id="aA"/>
    <path d="M8.7 13.8l4.3 2.1c1-1 2.1-2.4 3.3-3.9l-2.9-2.5 3.3 2c2.2-3 4.4-6.6 4.9-10.2 0 0-6.3.2-12 4.3l3-.3-3.8.9a20.6 20.6 0 0 0-4 4.2L8 9.7l-3.7 1.7c-.6 1-1 1.7-1.3 2.5l2.7-.5-3 1.4c-1 2.5-1.2 4.4-1.2 4.4l.3 3.9s7.3-2 8.9-4.3l1.7-2.1-3.6-3" id="aC"/>
    <path d="M4 8.6l-3 1.6c.2 1.3.7 2.5 1.3 3.8L5 19.3l2.7-1.6L5.4 20c1.7 3.2 3 5.2 3 5.2s3-2 4.7-6.6l-1.1-2 1.7.2.4-2.8c.1-2.2-.5-4.3-1.7-6.2L9.1 6.5l2.8.7C8.9 2.9 3.3.2.3.6l-.1.5C0 2.2-.2 5.3.6 9L4 8.6" id="aE"/>
    <path d="M1.8 7.5c.4-.5.8-.7 1.2-.7.6 0 2.2 1 3.3 1 1.2 0 1 5.3 4.6 7.7 2.3 1.6 5.1 2.1 8.4 1.6 1 .8 2 1.3 2.7 1.5 1 .4 2 5.1 2 6.4 0 1.2 1.3 1.5 1.3 2.4 0 .8.9 3.3.9 3.9l-.3 2c0 .4-1.5 1-1.2 2 1.6.1 3.7.9 3.7 0 0-.8-.6-1-.6-1.5s.5-1.4 0-2.1c-.5-.7-.8-3.2-.8-5.3 0-2.2-1.1-4.3-1.1-5.9 0-1 0-1.6.3-1.9 3 0 5.3-.6 6.6-1.8a57 57 0 0 1 4.4-3.3c.4 3.3 1 5.4 1.8 6.2 1.1 1.2 4.2 3.8 4.6 4.7.3.9 1.1 4 1.6 5 .4 1.1-.5 1.3-.5 2.8 0 1 .2 1.4.5 1-1.7 1.1-2 2-1.3 2.4 1.8-.2 3.8-.5 3.8-1.1 0-.7-.5-1-.5-2.3 0-.6-.5-2.5-.9-4.8L46 24c0-.3-.5-1-1.5-2.2-1.6-1.8-2.5-8.4-2.5-9.6.6 1.3 1.2 2.2 1.6 2.8-.6 1.2-.1 2.4 1.6 3.6.7-2.1.4-3.6 0-3.6-.5 0-1.3-1.2-2-3.1-.7-2-2-4.3-5-6C35 4.2 32.3.3 29.7.3c-2.7 0-4.2 4.1-6.1 4.9-1.9.7-2.6.5-6 4.7-4 1.6-5.2 1.3-6-2.4-.3-1.5-.9-2.6-1.2-3.4-.2-.5 0-1 0-1.5 0-.4-.4-.6-.8-.6-.2 0-.7.6-.9.6a10 10 0 0 1-3 .5c-1 0-2.1.6-2.7.6-.5 0-.7 0-1.2.4-.5.3-1.9 1.3-1.3 1.8.4.3.8.4 1.3.4-.4.4-.6.7-.6 1 0 0 .2.2.6.2z" id="aG"/>
    <path d="M2 8.2c.4-.5.9-.8 1.3-.8.7 0 2.4 1.1 3.7 1.1 1.2 0 1.1 6 5 8.6 2.5 1.7 5.6 2.3 9.3 1.7 1.1.9 2 1.4 2.9 1.7 1.1.4 2.1 5.6 2.1 7 0 1.4 1.5 1.6 1.5 2.6s1 3.6 1 4.3l-.3 2.2c0 .5-1.6 1.1-1.3 2.3 1.7 0 4 .9 4 0 0-1-.7-1.1-.7-1.7 0-.6.6-1.6 0-2.3-.5-.8-.8-3.6-.8-6 0-2.2-1.2-4.6-1.2-6.3 0-1.1 0-1.8.3-2 3.4-.2 5.8-.8 7.3-2 1.5-1.3 3-2.5 4.8-3.7.5 3.6 1.2 5.8 2 6.7 1.2 1.4 4.7 4.3 5 5.2.4 1 1.3 4.5 1.8 5.6.5 1.2-.5 1.3-.5 3 0 1.2.2 1.6.5 1.2-1.8 1.2-2.3 2-1.4 2.6 2-.3 4.1-.6 4.1-1.3 0-.7-.5-1-.5-2.4 0-.7-.6-2.8-1-5.4l-.3-3.6c0-.4-.5-1.3-1.7-2.6-1.7-1.9-2.7-9.2-2.7-10.5.7 1.4 1.3 2.5 1.7 3-.6 1.4 0 2.7 1.8 4.1.8-2.4.5-4 0-4s-1.4-1.3-2.2-3.4c-.7-2.2-2.1-4.7-5.5-6.6-3.4-2-6.4-6.1-9.4-6.1S28 4.9 26 5.7c-2 .8-2.8.6-6.6 5.2-4.4 1.8-5.7 1.5-6.5-2.7-.3-1.7-1-2.9-1.3-3.7-.3-.6 0-1.2 0-1.6 0-.4-.5-.7-1-.7-.1 0-.7.7-.9.7a11 11 0 0 1-3.4.5c-1 0-2.3.7-2.9.7-.6 0-.8 0-1.4.4-.5.4-2 1.5-1.3 2 .4.3.9.5 1.3.5-.4.4-.6.7-.6 1 0 .1.2.2.6.2z" id="aI"/>
    <path d="M15.9 9.5l-1.5.8a77.5 77.5 0 0 0 2 4.5l1.3-.8-1.1 1.2 1.5 2.6s1.5-1 2.3-3.2l-.6-1h.9l.2-1.4a5 5 0 0 0-.8-3l-1.7-.7 1.4.3c-1.5-2-4.3-3.4-5.8-3.2v.2c0 .6-.2 2.1.2 4l1.7-.3" id="aK"/>
    <path d="M4.5 2.1l.7-.5A4.1 4.1 0 0 0 3.6.5L2.1.6l.6-.3C1.3 0 0 .5 0 .5s.7 1.2 1.8 2c1.2.9 3 1 3 1s1-.7.5-1.6l-.8.2" id="aL"/>
    <path d="M1.7 1.9L2 3A5.4 5.4 0 0 0 3.7 3L4.1 1l.4 1.6C6.5 1.9 8.8.5 8.8.5S6.2-.3 3.5.4C.8 1 0 2.4 0 2.4s.5.5 1.6.7V1.9" id="aM"/>
    <path d="M1.2 17.9c1.3 0 1.1-.5 1.1-.5S2.5 7.5 2 4 1 .2 1 .2L.2.5s.9 10-.1 16.7c0 .5-.2.7 1.1.7z" id="aN"/>
    <path d="M5 2l1.2.6h.6l.7-.2-.4-.6.9.6h1.3S7.9.3 6.3 0a7 7 0 0 0-.7 0L5 .4l.1-.5C4.4 0 3.6.2 3 .5l-.7 1.2.2-1-.6.4C.6 2 .2 3.6.2 3.6c2.4.9 4.2-.3 5.6-.8L5.1 2" id="aO"/>
    <path d="M7 1.4C5.5-.3 2 0 .2.7c0 0 .5 1 3.2 1.6l.6.2.7-1-.4 1 1.4.8.8-.7-.3 1 1.2 1S8.4 3 7 1.3" id="aP"/>
    <path d="M3.2 4.1l1.3.6 1-1.1-.8-.8 1 .6c.7-.9 1.3-2 1.5-3 0 0-2 0-3.7 1.3l1-.1-1.2.2A6.3 6.3 0 0 0 2 3.1l1-.2-1.1.5-.5.7.9-.1-1 .4C1 5.1 1 5.7 1 5.7v1.2s2.3-.6 2.8-1.3l.5-.6-1-.9" id="aQ"/>
    <path d="M1.2 2.6L.2 3l.5 1.2.8 1.5.9-.4-.7.7.9 1.5s1-.6 1.4-2L3.7 5l.5.1.1-.8a3 3 0 0 0-.5-1.8l-1-.5.9.2C2.7 1 1 .1 0 .1v2.6l1.1-.1" id="aR"/>
    <path d="M41.3 14.1c3.2-6 4.8-10.5 4.8-13.3 2.8-1 5.2-.5 7.2 1.2-.4 10.6-1 17.1-2 19.5-.9 2.4-4.2 0-10-7.4z" id="aS"/>
    <path d="M.6 16s10 .8 12.3-.7c1.2-.8 1.3-3 1.3-5.4V8c-.1-1.8-.5-3.3-.5-3.3s-1-2.8-1.3-3.1c-.3-.4-1.8-.6-1.8-.6L2.9 4 .6 10.8v5.3z" id="aU"/>
    <path d="M5.4 19s3.5 1.5 7.9 0c.5-.1 1.7-3.3 1.3-5-.4-1.4-1.2-2.9-.6-3.6 1.3-1.6 1.8 1.2 3 1.2 1.1 0 .7-4.8-.8-6.8-1.6-2-7.9-6.7-14-.7-6.2 6 3.2 15 3.2 15z" id="aW"/>
    <path d="M.1 1h9.2s2.4 0 2.4 2.3c0 2.2.7 3.7 1.5 6 .8 2.2.5 4.6-.8 5.2-1.2.7-8.4.8-10 0C1 13.8.1 13.8.1 10c0-2.6 1.6-6.3 1.6-9C1.7.7 0 1 0 1z" id="aY"/>
    <path d="M.4 3.8c1-1.3 2.8-2 5.1-2.3 2.4-.3 7.7-.6 16-1 .4 0 1 .2 1.3.4 2 1.3 3 3 3 5 0 2.3-1 4-3 5.4H5.6C1 11.3-.8 8.8.4 3.8z" id="ba"/>
    <path d="M1.7 1.8S.2 12.3 1 13.8c.3.6 3 1.3 6.5 1.2 2.4 0 4.1-.9 6.4-1.2 3.1-.5 6.5-.5 6.5-.5s3.2.1 2.3-2.9c-1.8-5.6-7.4-2.7-9.6-4-2-1.1-2.1-2.3-2.1-2.7V.3L1.7 1.8z" id="bc"/>
    <path d="M2.6 11.9l-.7 39S.3 60.7.3 66.7v13.5S0 84.7 5 84.7c5 0 6.9 0 8.4-2.3 1.6-2.2.8-11.2 1.6-15 .7-3.7 2.3-18 4.6-22.5s3.8-21 3.8-21 1.8-2.8 1.8 2.4c0 1.2-.5 4.4 0 8.6.4 4.6 1.2 11.3 1.4 16.8.5 11.4.3 21.3.7 23.2.7 3.8 0 12.6 1.5 13.4 1.5.7 10.8 1.5 12.3 0S43.4 66 43.4 66s4.6-53.5 3-62.5c-1.5-9-43.8 8.3-43.8 8.3z" id="be"/>
    <path d="M23.6 6c-4.2-.2-8.4.8-8.4.8s-2.3 0-2.3 3v3.7S.9 17.5.2 28C-.5 38.4 2.6 53.3 3 70.6 3.3 87.8.6 105 .6 105s-1.6 3 3 3.7c4.7.8 14.7 2.3 18.5 2.3 3.8 0 21.5-2.5 24.6-4 3-1.6 5.4-2.3 4.6-4.6-.7-2.2-1.5-3.7-1.5-3.7L49 71.3s-.1-9.8.8-17c2 2.5 4.7 4.4 8.3-.3 5-6.4 8-42.6 10-50a7.6 7.6 0 0 0-9.5-2.2c-1.2 7.5-5.4 22-6.4 31L49 26.3s-.3-1.1-1-2.7c-.2-.4-2.4-4.3-4.8-6.7-1.9-1.8-4-2.2-4.6-2.6-1.3-.8-.2-.4-1.9-.8-3-.7-.8-5.2-2.3-6-1.5-.7-6.5-1.3-10.8-1.5z" id="bg"/>
    <ellipse id="bj" cx="21" cy="57.0209251" rx="1.8" ry="1.80066079"/>
    <filter x="-22.2%" y="-22.2%" width="144.4%" height="172.2%" filterUnits="objectBoundingBox" id="bi">
      <feMorphology radius="0.300000012" operator="dilate" in="SourceAlpha" result="shadowSpreadOuter1"/>
      <feOffset dy="1" in="shadowSpreadOuter1" result="shadowOffsetOuter1"/>
      <feComposite in="shadowOffsetOuter1" in2="SourceAlpha" operator="out" result="shadowOffsetOuter1"/>
      <feColorMatrix values="0 0 0 0 0.277184311 0 0 0 0 0.204814286 0 0 0 0 0.0841975781 0 0 0 1 0" in="shadowOffsetOuter1"/>
    </filter>
    <ellipse id="bl" cx="33" cy="57.0209251" rx="1.8" ry="1.80066079"/>
    <filter x="-22.2%" y="-22.2%" width="144.4%" height="172.2%" filterUnits="objectBoundingBox" id="bk">
      <feMorphology radius="0.300000012" operator="dilate" in="SourceAlpha" result="shadowSpreadOuter1"/>
      <feOffset dy="1" in="shadowSpreadOuter1" result="shadowOffsetOuter1"/>
      <feComposite in="shadowOffsetOuter1" in2="SourceAlpha" operator="out" result="shadowOffsetOuter1"/>
      <feColorMatrix values="0 0 0 0 0.277184311 0 0 0 0 0.204814286 0 0 0 0 0.0841975781 0 0 0 1 0" in="shadowOffsetOuter1"/>
    </filter>
    <path d="M11.2 9.5c.6-4.9 1.2-7.5 1.6-8.1A38 38 0 0 1 26.2.2c.6.4 1.7 3 3.2 7.7 8.4-.7 13.4 1 10.6 1-3.1 0-4.2 1.5-18 3.3a52.9 52.9 0 0 1-21.7 0c-2-.6 6.4-2.3 10.9-2.7z" id="bm"/>
  </defs>
  <g transform="translate(-296 54)" fill="none" fill-rule="evenodd">
    <ellipse fill="#FFF" cx="997.4" cy="33.0121145" rx="29.4" ry="29.410793"/>
    <path d="M197 469s-68.5-71.5-68.5-140c0-38.5 50.6-103.6 150-113.3 10-1 39.8 23.5 64 38.3 20.3 12.4 35.5 15.5 43.5 14.5 55.7-7.3 58-54 83-62s78.5 5 112 0c21.3-3.2 48.9-74.5 79.8-66.5 12 3 27.6 21.4 40.6 26 36.6 12.9 49.1 27.6 86.1 40.5 51.5 17.9 125.4 32 155.3 30.1 40.3-2.4 74.5-10.2 96.6-8 35.7 3.4 77.3 12.9 118.9-13 27.5-17 84.4-71.5 93.5-106.4 9-34.9 63-71.4 79.9-95 15-20.9 71.6 23.6 71.6 23.6s43.2 70.7 77.1 62.9c33.9-7.9 57-33.4 57-33.4s21-1.5 29.4-1.5c8.4 0 33.1-21.4 49.1-21.1 16 .3 12.8 10.3 20.1 22.6 3 5 10.7 16 14.2 29.8s3.2 24.7 5 27.5c2.2 3.1 8.2 5.7 15.2 5.6 36.6-1 43.7 35.8 62.8 35.8 11.3 0 27.7.6 40.8-7.8 11.3-7.4 12.9-26.7 25-37.9 12.3-11.2 37.2-6 46.2-19.6 11.3-17.1-2-37.8 16.2-34.9 30.5 5 11.5 7.5 33.4 14.3 21.8 6.7 43.2-8.9 49 11.3a172 172 0 0 0 20.4 38.8c4.5 6.7 22.8 1.6 29.2 0 20.7-5.4 49.6-29.5 68.3-57.5 18.6-28 71.7-72.7 71.7-72.7l25 10.8s28 87.7 95.6 129.2c23 14 73 23.8 119.5 7s111 4.5 142 19c73.8 34.6-95.5 121 21 121 126.1 0 82.7 164.2 46 182-112.2 54.2-424.1 0-424.1 0H197z" fill="#F4F4F4"/>
    <path d="M1525.2 280.8s10.8-14.4 18.8-14.4 22-17.8 43.2-21.2c21-3.4 178.4-9.7 197.3-9.7h74.7c6.2 0 9 4 28.5-9.4s19.7-24 35.7-21.2c16.1 3 39.6 13.3 48.5 6.7 9-6.7 11.3-15.7 22.3-20.8 11-5.1 26.9-8.5 41.7-8.5 5.3 0 20.1 22.6 48.7 22.6 17.1 0 53-7.5 107.3-22.6a337.5 337.5 0 0 0 127.6 22.6c34.5 0 81.8-19.8 113-22.6 85-7.6 180.8-4.7 186.5 0 35.1 29 40.3 424.4-93 431.7-35.2 2-146.5-96-334-293.7h-672l5.2-39.5z" fill-opacity="0.0299999993" fill="#2A2A2A"/>
    <path d="M492.5 221.6c35 0 48 10.3 66.2 22.4 10.9 7.2 4.7.3 14.7 8.2 10.1 7.9 6-2.1 17.5 17 3.1 5.2 1.6 4.2 5.3 8 .3.4-.6 1.6 0 1.6 11.2.5 22.5-.6 33.7 0 .7 0 3.8 2.6 4.8 2.7 5.9.2 11.9-1 17.7 0 7.6 1.1 9 8 12.8 12.8 11.6 10 4.6 11.6 20.4 21.4 4.1.4 4.3 2 5.3 2.2 5.9.6 12 1 17.7 0 7.5-1.5 7-5.3 10.7-9.7 2-2.3 4.1-4.5 6.5-6.4.9-.8 2.2-.9 3.2-1.6l1.6-3.2c1.3-1 3.4-.6 4.8-1.6 1-.7.8-2.4 1.6-3.2 6-6 15.2-6.1 23-4.3 18 4.1 19.9 29 38 31 15.3 1.7 30.8-.4 46.1 0 2.2 0 4.5.6 6.4 1.6 10.5 5.9 47.8-9 60.2-4.8.5.2 19.4-7.9 38.4-7.5 17.9.4 36 9.1 36.2 9.7 4 6.6 36.6 8.8 57 7.6 13-.8 19.2-16.4 28.6-18.4 10.7-2.2 20 8.6 30.3 8.6s23.9-8.5 64.7-8.6c16.2 0 38.2-10 60.7-10.6 24.9-.8 39.7 12.4 63.5 10.6 46.7-3.3 98-10.7 115.7-15 17.8-4.2 12.4-10.6 28.1-16 16.4-5.5 23 5.7 36.2 5.4 11.7-.4 29.3-12 53.9-19.2 20.9-6.1 49-52.3 70-56.3 44.8-8.6 79.5 22.6 117.5 27 59.2 6.9 114.1-6.5 133.8 9 55.1 42.9 266.4-22.7 268.2-20.4 3.6 4.3 238 90.2 137.2 113.7-230.7 53.6-929.4 34-953.4 37.7-78 12.5-266.1-7.8-261.5 0 3.7 6.1 10.7 16.5 6.5 24.7-7.8 14.8-29.4 22.5-43.4 27.3-23 7.7-45.8 15.7-69.1 22.4-32.3 9.4-67.3 6.3-100.1 11.3-19 2.8-37.3 8.7-56.3 11.2-23 3-46.6 2-69.6 5.4-71 10.1-8.7 6-53 16-30.7 7-26.4.5-49.8 11.3-4.7 2-27 15.7-36.4 17.6-3.7.8-7.6-.4-11.3 0-4.8.6-2.9 5.7-10.2 1.6-1.4-.8-.6-3.4-1.6-4.8-1.2-1.9-3.4-3-4.8-4.8-6.6-8.4-13.5-16.7-19.3-25.7-9.5-14.9-12-32.6-16-49.2C494.8 409.8 35 592.3 33 550.5c-1.5-31 157.6-184.2 158.5-215.2.1-4-11.2 11.6 61.5-14.8 8.9-3.2 90.3 2.7 153.5-23.5 50.2-20.9 50.9-75.4 86-75.4z" fill="#2A2A2A" opacity="0.049999997"/>
    <path fill="#D1C9AD" d="M1556 285.5v-27l3.4-1.8 2.2 1v2.2l1.4 1.4-1.4 3v4.3h9l2.7-29 14.8-.4v-19.7h11.5v60.8zM1863.2 268.7v-27l3.4-1.8 2.2 1v2.2l1.4 1.4-1.4 3v4.3h5.4l8.2-29.4h10.5l2.4-12.5h15.1l2.9 2.3 2.2 9.2h12.2l8.4 39.9z"/>
    <path fill="#D1C9AD" d="M1953.2 255.7l-30.6-11.7h38.4l4.6-20.4h8.6l1.7-8.7h10.8l1.6 1.6 1.6 6.4h9l5.9 27.7zM1413.2 343v-26.8l3.4-1.9 2.2 1v2.2l1.4 1.4-1.4 3v4.3h5.4l8.2-29.3h10.5l2.4-12.6h15.1l4.1 2.4 2.2 9.1h11l8.4 39.9z"/>
    <path d="M878.3 332a44 44 0 0 1 25.4 9.5c7.7 5.9 26.4 8 56 6.3L909 372.5 870.1 360l8.2-28.1zM701.6 322.3a57.1 57.1 0 0 1 17.1 13.4c13.2 12.4 32.2 13.4 57 2.9-11 12.8-19.7 20.6-26 23.3-6.3 2.8-19.2 4.4-38.9 5l-21.1-26 6-14.5 6-4zM1039.5 307.7c8.9 0 25 6.6 48.6 19.8 23.5 13.2 53.3 18.7 89.3 16.6l-56.3 15.2h-77.8l-19.8-13.7 8-26.5 8-11.4z" fill="#E3CC81"/>
    <path d="M2134.3 258.5c3.5 5.5-9.1 5.5-37.8 0-43-8.4-41.7-14.6-64-8.4-22.4 6.3-26.1-1.3-31.7 8.4-5.6 9.6-17.4 9.6-33 9.6-15.7 0-36.9-27.4-52.5-18-15.5 9.5-17.4 18-31.3 18-14 0-24-9.6-34.6-9.6-10.5 0-13-9.7-34 0-21 9.6-52-9.7-61 0-8.9 9.6-29.9 9.7-60 17.2a511 511 0 0 1-114.7 12.3c-41.9 0-36.7-24.7-55.8-12.3a211 211 0 0 1-98.2 30.7c-43.8 2.7-44.4-3.2-95.6-3.2-28 0-18.2 12.3-48.8 15.4-19.2 1.9-61-5.2-68.9-4.7-63.4 4.3-204.2 64-172.5-6.7-7.4.8-16.3 2-37.6 18.4-15 11.6-38.1 18.1-62.4 27.9-15.7 6.3-68.4-4.1-61.7-21.6-32.2 4.4-18.4-1.7-51.2-9.6-32.7-8-63.8 27.3-76 31.2-12.2 3.8-22.5 6.6-31 3.8-17.8-5.8-27.1-24.7-18.4-35-27.9-3.8-37.6 28.7-55.6 25.5-2.7-.5-27.6-11-38.6-10.5C579 339 551 353.6 548 353.5c-14.4-.5-39-20-76-21.6-49.7-2-113.2 13.8-124.5 13.8C35.3 347.6.1 348.3 0 353.5c-.4 22.9 526.8 66.8 529.2 70.6 10.9 16.8 55 9.7 61.5 16.9 8.7 9.4 1234.5-7.4 1234.5-7.4l309-51.5V258.5z" fill="#F7E5AC"/>
    <path d="M820.4 321c-9.6 8.4-12 16.1-7.5 23.2 7 10.6 40.8-7.5 49.5-10.4a88.3 88.3 0 0 0-28.6-11.6c-2.8-.6-7.3-1-13.4-1.1z" fill="#E3CC81"/>
    <path d="M1483.9 275.2l7.2-26.1-2.2-1.9 32.5-1-1.1 2.3 12.3 3.8 7.3 22.2 13 .3 1.6 17c10.2.5 14.5 1 13 1.2-1.5.2 1.8 4.6 1 6-.8 1.4-9 4.4-26.9 6.2-4.7.5-33 .5-85.3 0 .8-2.2 1.2-4 1.2-5 0-1.1-.7-1.5-2.3-1.2v-3.5h4l.5-5.8h-2.9v-4.4h5.2V280h-2.8l.5-4.8 24.2.1z" fill="#EFDDA1"/>
    <path d="M1347.2 329.8s2.8 4 9.8 0c4.8-2.7 2.7-1.7 10.7-2.6 2.1-.2 1-3.5 5.8-3.5 2.8 0 3.4 3.7 5.4 2.1 2.5-2 .9-6.1 4-7.7 4.3-2.2 4.8.8 5.7 0 5-4.7 4.4-8.1 9.4-4.6 1.6 1.1 3.4 2.2 6 1.8 2-.3 5-2 6.6-1.8 5.4.7 9.6 3.8 11.5 2.4 1.8-1.4 2-4.8 6.6-2.4 2 1 2.4-2.7 5.3-6 3.8-4.4 10.3-8.2 13.7-1.5.7 1.5 3 1.4 3.5 2.3 3.5 6.8.2 2.5 12.3 1.5 1.7-.2 3.7-2.4 5.2-2.3 4.3.2 7.7 3.2 11 2.3 3.3-.9 3.8-3.8 6.4-5 1.6-.9 5.4-.4 7 0 2.4.4 6.6.1 10.2 2a62 62 0 0 1 11.3 9l-15.6 10-159.7 14.4c-1.3-2.6-1.8-4.4-1.4-5.4.8-2.5 4.7-4.3 5.2-5 1.6-2.1 4 0 4 0z" fill="#A8CD39"/>
    <path d="M1522.4 274.8l-2.1-24.6-27.8.3-1.3-1.3 29.1-.7 1-2.2 12 4.2-.7 1.8 7.3 22 17.6.5 3.7 10.7 25.8-4.3c-.7 8-3 13.5-6.6 16.5-3.7 3-8.9 6.3-15.5 9.9l-30.2-4.7-3.4-28h-8.9z" fill="#CDB872"/>
    <path d="M1893 254.8l7.3-26.2-1.8-.3-.4-1.5 32.5-1-1.1 2.3 18.9 27.4c23.8-.5 34.2-.5 31.2 0-4.6.7-2.4 26.6-28.8 29.3-4.7.5-33.4.5-86.4 0l4-9.7.5-5.8h-2.9v-4.4h5.2v-5.4h-2.8l.5-4.8 24.2.1z" fill="#EFDDA1"/>
    <path fill="#CDB872" d="M1863.5 261.8h61.3v1.3h-59.3zM1863.5 269h61.3v1.4h-59.3zM1931.6 253.8l-2.1-24-27.8.3-1.3-1.3 29.1-.7 1-2.2 7.3 1.8-.8 1.8 6.6 23.2z"/>
    <path d="M2155.9 276.3h-58.7c-38.9 0-35.1 2.7-82.6 10.1-47.5 7.4-74 3.2-108.3 0s-36-10.1-99-10.1c-62.9 0-44.9-10.2-114.4 0-69.4 10.1-81.5 4.4-133 24.6-11.3 4.4-17-2-32.7 0-15.8 2.1-19.6 13.9-29.4 15-20.7 2.5-32.4 0-43 0-25 0-73 17.3-96.3 20.6-22.5 3-48.7-1.4-74.5 0-38.5 2-79.3-4-106.9-1.2-34.6 3.3-42.7 23.2-87.4 23.2s-121.3-4.7-164.6 11c-38.8 13.9-41.8 24.5-120 24.5-48.7 0-42-13.3-88.1-19-30.8-3.7-91.5-5.6-182-5.6-89.6 11.4-151 16.4-184.5 15.1-193.3-7.4-277.4-30.8-282-26-39.8 41.5 391.6 108 422.8 119.2 55 19.7 246.2 39.8 573.5 60.3l1149-16.6a7211.5 7211.5 0 0 1-11.9-173.2c0-12.5-38.2-72-46-72z" fill="#FCF2D0"/>
    <path d="M1316 386.5c83.5 0 145.2-4.8 145.2-10.8 0-3-26.2-5.1-55.4-7-27-1.8-49.6-3.5-89.8-3.5-20.4 0-17.1 2.3-34.9 2.6-10.2.2-20.4-.8-29.3-.5-11.5.4-21.3 2-30.1 2.6-21.3 1.3-34.1 3.2-34.1 5.8 0 6 44.9 10.8 128.4 10.8z" fill="#F7E5AC"/>
    <g transform="translate(1199.6 369.7)">
      <mask id="b" fill="#fff">
        <use xlink:href="#a"/>
      </mask>
      <use fill="#E3CC81" xlink:href="#a"/>
      <path d="M115.2 10.8c73.6 0 127.2-2.4 127.2-5.4 0-3-53.6-5.4-127.2-5.4S4.8 2.4 4.8 5.4c0 3 36.8 5.4 110.4 5.4z" fill="#FFF" mask="url(#b)"/>
    </g>
    <ellipse fill="#F7E5AC" cx="1560.8" cy="317.51652" rx="4.8" ry="1"/>
    <ellipse fill="#F7E5AC" cx="1474.4" cy="318.71696" rx="4.8" ry="1"/>
    <ellipse fill="#F7E5AC" cx="1550" cy="315.115639" rx="4.8" ry="1"/>
    <ellipse fill="#F7E5AC" cx="1570.4" cy="374.537445" rx="24" ry="2.40088106"/>
    <ellipse fill="#F7E5AC" cx="1630.4" cy="365.534141" rx="28.8" ry="3.00110132"/>
    <path fill="#F7E5AC" d="M1560 312.5l65 18.3 58.2 2.7 101-11.6 13.3-51.7z"/>
    <path d="M1306 420c29-1.6 49.8-3 62.6-4 39.6-3.5 72.5-7.6 99.6-7.6 60.6 0 77-23 48.4-35.1-28.6-12.1-38.4-17-5.6-34.3 21-12 27.8-24.3 20.3-37h.8c7.6 11.7 2 24.4-17 38.1-23.9 14.9-13 15.5 2.7 20 15.7 4.6 66.5 20.2 51.8 41.6-9.7 14.3-39.4 27-89 38.2L1306 420z" fill="#FFF"/>
    <g transform="translate(1500.8 100.8)">
      <path fill="#EDC001" d="M172.4 16.3l-4-.7V9.5L242.5 1v5.6l-5 2.2v56l-79.4 1.7z"/>
      <path d="M190.5 67.9l4.5-26.2 11.2-.9-1 27.7c-9.8 0-14.7-.2-14.7-.6z" fill="#B29000"/>
      <path fill="#D5AC00" d="M89.1 76.8l.4.1 122 6-104-11zM81.6 102.2h.3l122 6-103.9-11zM57.6 204.2h.3l122 6 18.2-20.1z"/>
      <path fill="#B29000" d="M288 70.5l-12.4-52.8 2.5-1.5v-4L242.4 1.2v5.2l-4.9 2.4-65.5 7.3 2 2 63.5-6v52.7z"/>
      <path d="M0 173.8l1.3-10.5H6l.8 10.8c-4.5 0-6.8-.1-6.8-.3zM408 153.4l1.8-10.5h4.2l-.4 10.8a25 25 0 0 1-5.6-.3z" fill="#CDB872"/>
      <use fill="#FFF" xlink:href="#c"/>
      <use fill="#000" filter="url(#d)" xlink:href="#c"/>
      <path d="M341.5 73.6l-123.8-8.3v21.4l123.6 6.7a1.7 1.7 0 0 0 1.8-1.7V75.4c0-1-.7-1.7-1.6-1.8z" stroke="#D5AC00" stroke-width="6.91200014" fill="#D5AC00"/>
      <path fill="#B29000" d="M214.2 84l132.1 5.7v6.5l-136-6.4z"/>
      <path d="M90 73.6l121.8-8.3a3.5 3.5 0 0 1 3.7 3.5v14.5c0 1.9-1.4 3.4-3.3 3.5L90 93.4" stroke="#EDC001" stroke-width="6.91200014" stroke-linecap="round"/>
      <use fill="#FFF" xlink:href="#e"/>
      <use fill="#000" filter="url(#f)" xlink:href="#e"/>
      <path d="M350 98.6l-132.3-5.2v22.4l132.2 3.5a1.8 1.8 0 0 0 1.9-1.8v-17c0-1-.8-1.8-1.8-1.9z" stroke="#D5AC00" stroke-width="7.34400079" fill="#D5AC00"/>
      <path fill="#B29000" d="M214.4 111.4l140.6 3v5.6l-144.7-2.1z"/>
      <path d="M82.4 98.6l130.2-5.2a3.7 3.7 0 0 1 3.9 3.7v15.1c0 2-1.6 3.6-3.6 3.7l-130.5 3.4" stroke="#EDC001" stroke-width="7.34400079" stroke-linecap="round"/>
      <use fill="#FFF" xlink:href="#g"/>
      <use fill="#000" filter="url(#h)" xlink:href="#g"/>
      <path d="M358.5 123.3l-140.8-1.8v23.8h140.8c1 0 1.9-1 1.9-2v-18c0-1-.9-2-2-2z" stroke="#D5AC00" stroke-width="7.77600062" fill="#D5AC00"/>
      <path fill="#B29000" d="M215.4 143h149v5.7l-153.2.8z"/>
      <path d="M74.9 123.3l138.8-1.8a3.9 3.9 0 0 1 4 3.9v16c0 2.1-1.8 3.9-4 3.9H75" stroke="#EDC001" stroke-width="7.77600062" stroke-linecap="round"/>
      <use fill="#FFF" xlink:href="#i"/>
      <use fill="#000" filter="url(#j)" xlink:href="#i"/>
      <path d="M364.8 151.7H217.7v26l147.2-2c1 0 2-1 2-2.1v-19.8c0-1.1-1-2-2-2z" stroke="#D5AC00" stroke-width="8.20800065" fill="#D5AC00"/>
      <path fill="#B29000" d="M215.8 174l155.2-2.3v6.9L210.4 182z"/>
      <path d="M68.7 151.7h145c2.4 0 4.2 1.9 4.2 4.1v17.8a4.1 4.1 0 0 1-4.2 4l-145-2" stroke="#EDC001" stroke-width="8.20800065" stroke-linecap="round"/>
      <use fill="#FFF" xlink:href="#k"/>
      <use fill="#000" filter="url(#l)" xlink:href="#k"/>
      <path d="M372.8 182.3l-155.7 2.2v27.4l155.8-4.3c1.2 0 2.1-1 2.1-2.2v-21a2.2 2.2 0 0 0-2.2-2z" stroke="#D5AC00" stroke-width="8.64000069" fill="#D5AC00"/>
      <path d="M60.4 182.3l153.7 2.1c2.3 0 4.2 2 4.2 4.3v18.7a4.3 4.3 0 0 1-4.4 4.3l-153.5-4.2" stroke="#EDC001" stroke-width="8.64000069" stroke-linecap="round"/>
      <path d="M239.3 196.3l83-2.3M230.6 130.1h20.8M230.6 102l77 2M230.6 74.2L335.4 80M261 130.1h55" stroke="#B29000" stroke-width="6.48000051"/>
      <path fill="#B29000" fill-rule="nonzero" d="M259.7 165l-.1-6.6 78-1.3.1 6.5z"/>
      <path d="M233 205.5c0 .5 2.6 1 6 1 3.2 0 5.9-.5 5.9-1s-2.7-.9-6-.9-6 .4-6 1" fill="#EFDDA1"/>
      <path d="M240.3 185.5l-.5-.7c.2-.2.5-.3 1-.4l1-.2 1.3.7-.6-.6c1.6.2 2.7 1.2 2.7 1.2s-1 1-2.5 1.4c-1.5.4-3.2-.1-3.2-.1s-.7-1 0-1.8l.8.5" fill="#9BC02C"/>
      <path d="M246.7 187.7l-.5 1.3a5.4 5.4 0 0 1-1.6-.2v-.1l-.5-2-.3 1.8c-2.1-.8-4.5-2.3-4.5-2.3s2.7-1 5.5-.2c2.7.8 3.6 2.1 3.6 2.1s-.5.7-1.7.8v-1.2" fill="#A8CD39"/>
      <path d="M239.3 205.4c-1.4 0-1.1-.5-1.1-.5s-.2-10.7.3-14.5c.5-3.8 1-4 1-4l.9.2s-1 10.9 0 18c0 .6.3.8-1 .8z" fill="#7B5B27"/>
      <path d="M234.8 186.5l-.9 1-.6.2-.7.2.2-.8-.6 1c-1 .2-1.3.4-1.3.4s.5-2.6 1.8-3.4l.8-.4.7.3-.3-.4c.7-.3 1.5-.5 2.3-.4l1 .9-.5-.9c.3 0 .5 0 .8.2 1.6.4 2.6 1.8 2.6 1.8-2 1.8-4.1 1.4-5.8 1.4l.5-1.1" fill="#A8CD39"/>
      <path d="M232.7 188c1.1-2 4.7-2.3 6.8-2 0 0-.4 1-3 2.3l-.5.3-1-.8.7 1-1.3 1-1-.5.6 1-1 1.2s-1.4-1.4-.3-3.4" fill="#9BC02C"/>
      <path d="M242.7 190.6l-1.5.5-.8-1.4 1-.6-1.1.5c-.6-1.1-1.1-2.3-1.1-3.5 0 0 2 .3 3.6 1.9l-1-.2 1.2.4a6.6 6.6 0 0 1 1 1.5l-1-.3a49.7 49.7 0 0 0 1.2.7l.3.8-.8-.3.9.6c.2.9.1 1.5.1 1.5l-.2 1.2s-2.3-1-2.6-1.8a8 8 0 0 0-.5-.7l1.3-.8" fill="#9BC02C"/>
      <path d="M238.2 188.6l1 .5a50.2 50.2 0 0 1-1.3 3l-.9-.6.8.8-1 1.7s-1-.7-1.5-2.1l.4-.7h-.5l-.2-.8c0-.7.2-1.4.6-2l1-.4-.9.2c1-1.4 2.8-2.3 3.7-2.1v.1c0 .4.2 1.4 0 2.5h-1.2" fill="#A8CD39"/>
      <path d="M103.5 232.5c9.3-4 14 3.2 25-7.2s14.1-15 20.6-18.6c6.5-3.7 17-3.7 22.4-3.7 5.3 0 21.2 11.3 29.7 0 8.6-11.3 10.7-19.1 20-15.7 9.2 3.5 9.7.7 16.4 6.8a37.3 37.3 0 0 0 23.3 9c6.8 0 13.3-5.9 25-9 11.8-3 15-2.3 28 0 13.2 2.4 21.4 7.5 30.5 2.4 9.2-5.1 14.3-16.8 17-20.7 2.7-4 5.2-10.9 14.1-10.9 8.9 0 27.7 9.4 31.5 14.5 3.9 5.2 13 14.3 10.2 23.6-2.8 9.4-23.2 30.6-51.8 33-28.6 2.4-305.8 17.6-288.2 12 17.6-5.6 17-11.4 26.3-15.5z" fill="#FCF2D0"/>
      <path d="M277.9 208c0 .4 2.5.8 5.7.8s5.8-.4 5.8-.9-2.6-.9-5.8-.9c-3.2 0-5.7.4-5.7 1" fill="#F7E5AC"/>
      <use fill="#9BC02C" xlink:href="#m" transform="matrix(-1 0 0 1 288.8 185.1)"/>
      <use fill="#A8CD39" xlink:href="#n" transform="matrix(-1 0 0 1 292.8 188)"/>
      <use fill="#7B5B27" xlink:href="#o" transform="matrix(-1 0 0 1 284.7 188.5)"/>
      <path fill="#608744" d="M284 188.9l-.3-.2.2.2"/>
      <use fill="#A8CD39" xlink:href="#p" transform="matrix(-1 0 0 1 284.7 184.9)"/>
      <use fill="#9BC02C" xlink:href="#q" transform="matrix(-1 0 0 1 284.2 187.8)"/>
      <use fill="#9BC02C" transform="scale(-1 1) rotate(-8 1206.7 2175.8)" xlink:href="#r"/>
      <use fill="#A8CD39" xlink:href="#s" transform="matrix(-1 0 0 1 284.2 188.3)"/>
      <g>
        <path d="M296.3 233.8c0 .8-4.1 1.4-9.2 1.4s-9.2-.6-9.2-1.4c0-.8 4-1.4 9.2-1.4 5 0 9.2.6 9.2 1.4" fill="#EFDDA1"/>
        <use fill="#9BC02C" xlink:href="#t" transform="translate(278.7 198.4)"/>
        <use fill="#A8CD39" xlink:href="#u" transform="translate(272.4 203)"/>
        <use fill="#7B5B27" xlink:href="#v" transform="translate(284.5 203.7)"/>
        <path fill="#608744" d="M286.6 204.3l.4-.2-.4.2"/>
        <use fill="#A8CD39" xlink:href="#w" transform="translate(285.4 198)"/>
        <use fill="#9BC02C" xlink:href="#x" transform="translate(286.2 202.6)"/>
        <use fill="#9BC02C" transform="rotate(-8 1601.1 -1865.3)" xlink:href="#y"/>
        <use fill="#A8CD39" xlink:href="#z" transform="translate(286.2 203.3)"/>
      </g>
      <g>
        <g transform="translate(107.9 194.9)">
          <mask id="B" fill="#fff">
            <use xlink:href="#A"/>
          </mask>
          <use fill="#ABD733" xlink:href="#A"/>
          <path d="M15 11.9A24 24 0 0 0 .2 1.9C-5.7.6-8.5 1.7-8 5l16.6 8.3 6.6-1.5z" fill="#6A8616" opacity="0.400000006" mask="url(#B)"/>
        </g>
        <g transform="translate(95 204)">
          <mask id="D" fill="#fff">
            <use xlink:href="#C"/>
          </mask>
          <use fill="#9BC02C" xlink:href="#C"/>
          <path d="M26.5 2.4c-1 0-1.9-3.2-12.4 1.4-7 3.1-14 5-21 5.8a83 83 0 0 0 19.3 3.7 37 37 0 0 0 19.3-4.5c-.2-.3-4.4-6.4-5.2-6.4z" fill="#6A8616" opacity="0.400000006" mask="url(#D)"/>
        </g>
        <g transform="translate(121.9 205.5)">
          <mask id="F" fill="#fff">
            <use xlink:href="#E"/>
          </mask>
          <use fill="#A28047" xlink:href="#E"/>
          <path d="M-.8 6.7C0 10 1.1 13.1 2.4 16c1.9 4.4 2.5 42.1.4 42.6a17 17 0 0 1-5.8 0 7.6 7.6 0 0 0 2.2 2.1C3.5 63 6.9 63 8 62c2-1.6 4.5-6.6 4.5-8 0-1.4.9-23-.7-28.7-1.6-5.8-7.4-16.5-7.4-17 0-.3-.9-1.3-2.6-3L-.8 6.8z" fill="#7B5B27" mask="url(#F)"/>
        </g>
        <path fill="#608744" d="M123.9 206.5l.7-.3-.7.3"/>
        <g transform="rotate(17 -586.4 518)">
          <mask id="H" fill="#fff">
            <use xlink:href="#G"/>
          </mask>
          <use fill="#9BC02C" xlink:href="#G"/>
          <path d="M.7 12C11.3 3.6 19.1.9 24.2 3.8c5 3 7.3 4.7 6.8 5.3a28 28 0 0 1-4 1.7L8 13.2.6 12z" fill="#6A8616" opacity="0.400000006" mask="url(#H)"/>
        </g>
        <g transform="rotate(9 -1228.5 876.1)">
          <mask id="J" fill="#fff">
            <use xlink:href="#I"/>
          </mask>
          <use fill="#ABD733" xlink:href="#I"/>
          <path d="M1.8 2.3c5.6-2 11 .1 16.1 6.2 5 6 7.8 8.3 8.1 6.8-3 3.2-4.8 4.4-5.5 3.7-.6-.7-6.9-6.3-18.7-16.7z" fill="#6A8616" opacity="0.400000006" mask="url(#J)"/>
        </g>
        <g transform="translate(104.1 205.5)">
          <mask id="L" fill="#fff">
            <use xlink:href="#K"/>
          </mask>
          <use fill="#ABD733" transform="rotate(-8 11.5 12.2)" xlink:href="#K"/>
          <path d="M19.3 6.3c.6-2.5.7-4.1.5-4.7 0-.4 0-1.5-.5-1.7-.8-.3-2.3.7-2.5.6-.1 0 2 0 .4 1a28 28 0 0 0-10 13.6c-1.6 5.6-3 8.9-4.3 9.7 9.3-2 14-3.5 14.2-4.6L19.3 8V6.3z" fill="#6A8616" opacity="0.400000006" mask="url(#L)"/>
        </g>
        <g transform="rotate(7 -1612.5 1107.8)">
          <mask id="N" fill="#fff">
            <use xlink:href="#M"/>
          </mask>
          <use fill="#9BC02C" xlink:href="#M"/>
          <path d="M1.8.6c-.3 1-.1 1.8.7 2.7 7.2 8 9.6 14 6.6 21-4.7 11-6.4-4-6.4-4l-4-10.9a25 25 0 0 1 0-9C-.8-1 .3-.9 1.8.6z" fill="#6A8616" opacity="0.400000006" mask="url(#N)"/>
        </g>
      </g>
      <g>
        <path d="M258.7 194l-1.4-1.5s0-1.2-.8-2l-.5.8.3-1-1.6-.8-2.3-.3-.2 1.2-.2-1.2s-.8.1-1.6.8l-.8.8s.8.7 1.7.8l1.3.1.3-.8v.8l1.2.4c.3 0 2.4.7 3 .7l1.6 1.1" fill="#ABD733"/>
        <path d="M258.7 194s-1-1.6-3.7-2.2c-2.8-.6-6 .3-6 .3a8.2 8.2 0 0 0 3.6 1.4l.2-1.3.1 1.3s.3.2 1 0h1.3l.3-1.1v1h1.5c.2.1.9 0 1.1.2.3 0 .6.3.6.3" fill="#9BC02C"/>
        <path d="M258.8 194.1s.6-2.7 1.4-4.5c.8-1.7 3-4 3.4-4.4l1.7-.8s0 .8-.3 1.6c-.3.9-1 1.5-1 1.5l-1-.5 1 .6-.5.6-.8.7-1.2-.7 1.1.8-1.5 1.5-.9-.3.6.4h-.7l-1.3 3.5" fill="#ABD733"/>
        <path d="M265 207.5c0 .4-2.7.8-6 .8s-6-.4-6-.8c0-.5 2.7-1 6-1s6 .5 6 1" fill="#F7E5AC"/>
        <path d="M259.4 206h-1c-.5 0-.5 1.2-.6 1.4 0 .1 1.3.3 2 0 0 0 0-1.3-.4-1.3" fill="#7B5B27"/>
        <path d="M259.4 206h-1c-.2 0-.3.1-.3.3h1.5c0-.2 0-.2-.2-.2" fill="#D1B88E"/>
        <path d="M259.4 205h-1c-.5 0-.5 1-.6 1.2 0 .2 1.3.3 2 .1 0 0 0-1.3-.4-1.3" fill="#7B5B27"/>
        <path d="M259.4 205h-1l-.3.1c0 .2 1 .1 1.5 0l-.2-.1" fill="#D1B88E"/>
        <path d="M259.4 203.8h-1c-.5 0-.5 1.1-.6 1.3 0 .2 1.3.3 2 0 0 0 0-1.2-.4-1.3" fill="#7B5B27"/>
        <path d="M259.4 203.8h-1c-.2 0-.3.1-.3.2 0 .2 1 .1 1.5 0l-.2-.2" fill="#D1B88E"/>
        <path d="M259.4 202.7h-1c-.5 0-.5 1-.6 1.3 0 .1 1.3.2 2 0 0 0 0-1.2-.4-1.3" fill="#7B5B27"/>
        <path d="M259.4 202.7h-1c-.2 0-.2.1-.3.2 0 .2 1 .1 1.5 0l-.2-.2" fill="#D1B88E"/>
        <path d="M259.4 201.6h-1c-.5 0-.5 1-.6 1.2 0 .2 1.3.3 2 .1 0 0 0-1.2-.4-1.3" fill="#7B5B27"/>
        <path d="M259.4 201.6h-1c-.2 0-.2 0-.3.2h1.5l-.2-.2" fill="#D1B88E"/>
        <path d="M259.4 200.5h-1c-.5 0-.5 1-.5 1.2-.1.2 1.2.3 1.8 0 0 0 0-1.2-.3-1.2" fill="#7B5B27"/>
        <path d="M259.4 200.5h-1c-.2 0-.2 0-.3.2h1.4l-.1-.2" fill="#D1B88E"/>
        <path d="M259.3 199.4h-1c-.4 0-.4 1-.4 1.2 0 .1 1.2.2 1.8 0 0 0 0-1.2-.4-1.2" fill="#7B5B27"/>
        <path d="M259.3 199.4h-1l-.2.2h1.4c0-.1 0-.2-.2-.2" fill="#D1B88E"/>
        <path d="M259.3 198.3h-1c-.4 0-.4 1-.4 1.1 0 .2 1.2.3 1.8 0 0 0 0-1-.4-1.1" fill="#7B5B27"/>
        <path d="M259.3 198.3h-1l-.2.1c0 .2 1 .1 1.4 0l-.2-.1" fill="#D1B88E"/>
        <path d="M259.3 197.2h-1c-.4 0-.4 1-.4 1 0 .2 1.1.4 1.8.2 0 0 0-1.2-.4-1.2" fill="#7B5B27"/>
        <path d="M259.3 197.2h-1l-.2.1c0 .2 1 .1 1.4 0l-.2-.1" fill="#D1B88E"/>
        <path d="M259.3 196h-1c-.3 0-.3 1-.4 1.2 0 .1 1.1.2 1.7 0 0 0 0-1.1-.3-1.2" fill="#7B5B27"/>
        <path d="M259.3 196h-1l-.2.2h1.4l-.2-.2" fill="#D1B88E"/>
        <path d="M259.3 195h-1c-.3 0-.3.9-.4 1 0 .2 1.1.3 1.7 0 0 0 0-1-.3-1" fill="#7B5B27"/>
        <path d="M259.3 195h-1-.2c0 .2.9.2 1.4 0h-.2" fill="#D1B88E"/>
        <path d="M259.3 193.8h-1c-.3 0-.3 1-.4 1 0 .2 1.1.3 1.7.2 0 0 0-1.1-.3-1.2" fill="#7B5B27"/>
        <path d="M259.1 193.8h-.6l-.1.2c0 .1.5 0 .8 0v-.2" fill="#D1B88E"/>
        <path d="M258.6 194s-2.3-1-3.2-1c-1-.2-4.2 0-5.7.2-1.5.3-2.4.8-2.4.8a24.3 24.3 0 0 0 4.2.6v-1.3l.1 1.3h2l.1-1.3.2 1.2h1.2l.6-.3.2-.9v1l.6-.7c0-.2 2 .3 2 .3" fill="#ABD733"/>
        <path d="M258.9 193.9l1.5-3s.6-1 2.2-2.6c1.6-1.5 1.7-1.4 1.7-1.4l-.2.6.3-.7 1-.2 1-.1c.2 0 .4.4.1 1-.3.7-2 1.9-2 1.9h-1.3l1.4.2-1.3.8-.7.5h-1.3l1.1.1s-.2.5-.8.5a6 6 0 0 1-1.3 0l-1.4 2.4" fill="#9BC02C"/>
        <path d="M258.8 194.1s-.6-2.7-1.4-4.5c-.8-1.7-3-4-3.4-4.4l-1.7-.8s0 .8.3 1.6c.3.9 1 1.5 1 1.5l1-.5-1 .6.5.6.8.7 1.2-.7-1.1.8 1.5 1.5.9-.3-.6.4h.7l1.3 3.5" fill="#ABD733"/>
        <path d="M258.8 194l.1-3c0-.4-.4-1-.2-2.1.1-1.1.4-1.4.4-1.4l.7.5-.7-.8 1.1-2.2 1-1.2.4.5-.3-.6.7-.4.9-.2v1c-.1.6-.8 1.7-.8 1.8l-1 .2h.8l-.8 1.9c-.3.3-1 1.7-1 1.8l-.9.7.7-.3-.7.7-.4 3" fill="#9BC02C"/>
        <path d="M258.7 194v-3c0-.3.3-1 .1-2-.1-1.1-.4-1.4-.4-1.4l-.7.5.7-.8-1.1-2.2-1-1.2-.4.5.3-.6-.7-.4-.9-.2v1c.1.6.8 1.7.9 1.8l.9.2h-.8a22.7 22.7 0 0 0 1.8 3.7l.9.7-.7-.3.7.7.4 3" fill="#9BC02C"/>
        <path d="M258.7 193.9l-1.5-3s-.6-1-2.2-2.6c-1.6-1.5-1.7-1.4-1.7-1.4l.2.6-.3-.7-1-.2-1-.1c-.2 0-.4.4-.1 1 .3.7 2 1.9 2 1.9h1.3l-1.3.2 1.2.8.7.5h1.3l-1 .1s.1.5.8.5h1.2l1.4 2.4" fill="#9BC02C"/>
        <path d="M258.7 193.9l1.7-1.2c.1 0 .3-1.1 1.3-1.8l.2 1v-1.1l1.7-.5 2.3.1-.1 1.3.5-1.2s.7.3 1.3 1.1l.7 1s-1 .5-1.9.4h-1.2l-.2-1-.1.8-1.2.2c-.4 0-2.6.2-3.2 0l-1.8.9" fill="#ABD733"/>
        <path d="M258.7 193.9s1.3-1.4 4.1-1.4c2.9 0 5.9 1.5 5.9 1.5s-1.3.5-2.4.6h-1.5l.1-1.2-.4 1.1s-.4.2-1 0l-1.2-.5-.1-1-.2 1-1.5-.3h-1.1l-.7.2" fill="#9BC02C"/>
        <path d="M258.9 193.9s2.4-.4 3.3-.4c.9 0 4 .9 5.5 1.4 1.4.6 2.2 1.3 2.2 1.3h-3.1a8 8 0 0 1-1.1-.3l.2-1.2-.4 1.2-1.2-.3-.7-.2.2-1.2-.4 1.2-1.2-.4-.6-.3v-.9l-.3 1-.3-.9h-2.1M258.7 193.9l-.1-3.7c0-.2-.6-.5-.7-.8v-.3l.5-1-.6.7v-2.1l.1-1.5.7-.8-.7.4.2-1c.2-.6.7-1 .9-1.3.1-.2.6 1 .8 1.6v1l-.7-.6.7.8-.2 3.2-.6-.5.6.8v.5l-.7 1-.2 3.6" fill="#ABD733"/>
        <path d="M259.2 195v-.4c-.1-.4-.8-.6-.8-.6l.1-.2h.6c.2 0 .2 1.2.2 1.2h-.1l.1 1V201.9l.1 1.1v4.5l-.1.1v-.5c-.1-.4-1-.7-1-.7 0-.2.1-.2.2-.2a7 7 0 0 1 .7 0v-.2c0-.5-.9-.8-.9-.8l.2-.1a7 7 0 0 1 .7 0v-.3c0-.4-.9-.7-.9-.7l.2-.2a6.9 6.9 0 0 1 .7 0v-.2c0-.4-.9-.7-.9-.7l.2-.2a6.8 6.8 0 0 1 .7 0v-.2c0-.4-.8-.7-.8-.7l.1-.2h.7v-.2c0-.4-.8-.7-.8-.7l.1-.2a6.6 6.6 0 0 1 .7 0v-.3c0-.4-.8-.6-.8-.6l.1-.2a6.5 6.5 0 0 1 .7 0v-.3c0-.4-.8-.7-.8-.7l.1-.1a6.4 6.4 0 0 1 .7 0v-.3c-.1-.4-.8-.7-.8-.7l.1-.1h.6v-.4c0-.3-.7-.6-.7-.6l.1-.2h.6v-.3c0-.4-.7-.6-.7-.6l.1-.2h.6z" fill="#7B5B27"/>
      </g>
      <g>
        <path d="M280.1 210.3c0 .5-2.5 1-5.7 1s-5.8-.5-5.8-1 2.6-.9 5.8-.9c3.2 0 5.7.4 5.7 1" fill="#F7E5AC"/>
        <use fill="#9BC02C" xlink:href="#O" transform="translate(269.2 187.5)"/>
        <use fill="#A8CD39" xlink:href="#P" transform="translate(265.2 190.4)"/>
        <use fill="#7B5B27" xlink:href="#Q" transform="translate(272.8 191)"/>
        <path fill="#608744" d="M274 191.3l.3-.2-.2.2"/>
        <use fill="#A8CD39" xlink:href="#R" transform="translate(273.3 187.3)"/>
        <use fill="#9BC02C" xlink:href="#S" transform="translate(273.8 190.2)"/>
        <use fill="#9BC02C" transform="rotate(-8 1502.8 -1812.8)" xlink:href="#T"/>
        <use fill="#A8CD39" xlink:href="#U" transform="translate(273.8 190.7)"/>
      </g>
      <g>
        <path d="M185 225c0 .7-3.9 1.3-8.6 1.3-4.8 0-8.7-.6-8.7-1.3 0-.7 3.9-1.3 8.7-1.3 4.7 0 8.6.6 8.6 1.3" fill="#F7E5AC"/>
        <use fill="#9BC02C" xlink:href="#V" transform="translate(168.5 192.4)"/>
        <use fill="#A8CD39" xlink:href="#W" transform="translate(162.6 196.6)"/>
        <use fill="#7B5B27" xlink:href="#X" transform="translate(174 197.3)"/>
        <path fill="#608744" d="M175.9 197.7l.3-.1-.3.1"/>
        <use fill="#A8CD39" xlink:href="#Y" transform="translate(174.8 192)"/>
        <use fill="#9BC02C" xlink:href="#Z" transform="translate(175.5 196.2)"/>
        <use fill="#9BC02C" transform="rotate(-8 1499.6 -1082.2)" xlink:href="#aa"/>
        <use fill="#A8CD39" xlink:href="#ab" transform="translate(175.5 197)"/>
        <path d="M183 229.4c1.5 0 2 .6 3.2 1.2 1.2.7 3.5-.1 2.6 2.2-.9 2.3-2.6 1.2-3.7 2-1.1 1 1.1 3.7-3.6 3.7s-8.4-1-10-1.7c-1.4-.8-4.6-1.4-7-1.4-2.2 0-3.7 1.3-6.4-.6-2.6-1.9-4.4-2.3-6-2.3-1 0-2.2-1-3.7-3H183z" fill="#F7E5AC"/>
      </g>
      <path d="M272.9 232.8c-4.2-.7-2 .6 6.3 3.9 12.6 4.8 23.4 11.7 28.8 14.6 5.4 2.8 27.8 1.2 28.8.6s3.8-4.1-4.8-8.1c-5.7-2.7-25.4-6.3-59.1-11zM279.8 217.1c1.6 0 1.9 1.3 2.8 2.1 1 .9 3.2 2.3 2.5 3.1-.6.8-2.5 2.7-4.6 2.7-2.2 0-4-.4-5.1-1-1.2-.6-3.1-.6-4.8-.6-1.7 0-.9 1.6-4.5 1.6s-4.6 2.6-9.6 0c-5.1-2.7-6.8-3.8-9.5-2.7-2.7 1-2 5-6.5 5-4.6 0-7-2.3-8.1-2.3-1.1 0-.3-.5-2.3-1.6-2-1.2-3.6-2-6.6-2.7-2-.5-7-1.4-14.7-2.9 1.1 0 3-.2 5.4-.7 3.8-.7 9.6-2.2 13.5-2.2 4 0 7.2.6 11.6.6 4.3 0 9.2-.6 16.3-.6 7 0 22.5 2.2 24.2 2.2z" fill="#F7E5AC"/>
      <mask id="ad" fill="#fff">
        <use xlink:href="#ac"/>
      </mask>
      <use fill="#A8CD39" xlink:href="#ac"/>
      <path d="M282.3 236.2l10-2.7c6.1-1.5 4.9-1.7 8.6 2.7 2.5 3 7 5 13.6 6.1l-5.4 7.8-20.4-2.1-6.4-11.8zM318 241.2c3.6-1.9 3.6-6.1 0-12.8-5.4-10 5-11 9.6-8.5 4.5 2.5 15.5-1 18.7-8 3.2-7 25.3 6.4 12.6 12-12.6 5.8-12.6 2.8-12.6 11.6 0 6-10 7.8-29.8 5.7h1.5zM382.5 208.6c0-6.4-1-11.2-3-14.3-.8-1.1-6.5 1.3-6.8 0-2-6.9-.1-10 9.8-10 4.2 0 12.4-4.2 17-4.2 1.8 0 4 1.4 6.6 4.2l2 12.2-25.6 12.1z" fill="#6A8616" opacity="0.400000006" mask="url(#ad)"/>
    </g>
    <path d="M1357.8 75.6h146.8s3-10.7 0-16.6c-7.1-11.3-17.2-8.8-17.2-8.8s0-32.2-24.1-32.2c-24.2 0-26.1 18.3-26.1 18.3s-16.6-7-22.7 9.2c-13.6-4.4-18.5-3-23.7 13.5-26.1-16.5-37.6 16.6-33 16.6zM1880 145.3h-110s-1.4-4.3 1-8.8c5.5-8.8 13.6-7.8 13.6-7.8s-2.7-13.8 14.1-13.8c0-22.2 25-11.7 23.7 2 3-2 10.6-6 15.3 6.5 10.5-4 21.8-1.4 21.8 13 21-8.8 24 8.9 20.4 8.9z" fill="#FFF"/>
    <g transform="translate(1764.8 253.3)">
      <g transform="translate(22.8 1.3)">
        <mask id="af" fill="#fff">
          <use xlink:href="#ae"/>
        </mask>
        <use fill="#ABD733" xlink:href="#ae"/>
        <path d="M26.8 21.2c-7.3-10-16.1-16-26.6-18-10.4-2-15.2 0-14.5 5.8L15 23.8l11.7-2.6z" fill="#6A8616" opacity="0.400000006" mask="url(#af)"/>
      </g>
      <g transform="translate(0 17.5)">
        <mask id="ah" fill="#fff">
          <use xlink:href="#ag"/>
        </mask>
        <use fill="#9BC02C" xlink:href="#ag"/>
        <path d="M47 4.2c-1.6 0-3.3-5.6-21.9 2.6-12.4 5.5-24.9 9-37.4 10.4A147 147 0 0 0 22 23.8c22.4-.4 34.6-7.8 34.4-8-.5-.6-7.9-11.6-9.4-11.6z" fill="#6A8616" opacity="0.400000006" mask="url(#ah)"/>
      </g>
      <g transform="translate(48.6 21)">
        <mask id="aj" fill="#fff">
          <use xlink:href="#ai"/>
        </mask>
        <use fill="#A28047" xlink:href="#ai"/>
        <path d="M-1.7 11.2C-.2 17 1.6 22.6 3.9 27.7c3.4 7.8 4.5 75 .8 76a30 30 0 0 1-10.3 0c1.6 1.9 2.9 3.1 3.9 3.6 7.7 3.9 13.7 4 15.7 2.4a30 30 0 0 0 8-14.4c0-2.5 1.5-40.7-1.3-51.1C18 33.8 7.5 14.9 7.5 14.1c0-.6-1.5-2.4-4.5-5.4l-4.7 2.5z" fill="#7B5B27" mask="url(#aj)"/>
      </g>
      <ellipse fill="#2A2A2A" cx="49.56" cy="37.2697673" rx="5.04" ry="6.20738786"/>
      <ellipse fill="#2A2A2A" cx="57.96" cy="43.9859574" rx="5.04" ry="6.20738786"/>
      <path fill="#608744" d="M51.2 22l1.4-.5-1.4.6"/>
      <g transform="translate(47.9)">
        <mask id="al" fill="#fff">
          <use xlink:href="#ak"/>
        </mask>
        <use fill="#9BC02C" xlink:href="#ak"/>
        <path d="M.5 21.4C19.2 6.4 33 1.6 42 6.8c9 5.3 13 8.4 12.2 9.4-4.4 2-6.8 3-7.2 3l-33.8 4.4L.5 21.4z" fill="#6A8616" opacity="0.400000006" mask="url(#al)"/>
      </g>
      <g transform="translate(49.7 16.2)">
        <mask id="an" fill="#fff">
          <use xlink:href="#am"/>
        </mask>
        <use fill="#ABD733" xlink:href="#am"/>
        <path d="M3.2 4c10-3.4 19.5.3 28.6 11.1 9 10.8 13.8 15 14.4 12.2-5.3 5.7-8.5 7.9-9.7 6.6A1527 1527 0 0 0 3.2 4z" fill="#6A8616" opacity="0.400000006" mask="url(#an)"/>
      </g>
      <g transform="translate(16.1 20.2)">
        <mask id="ap" fill="#fff">
          <use xlink:href="#ao"/>
        </mask>
        <use fill="#ABD733" transform="rotate(-8 20.4 21.7)" xlink:href="#ao"/>
        <path d="M34.3 11.1c1-4.4 1.3-7.2 1-8.3-.2-.6-.2-2.7-1-3-1.5-.5-4.2 1.2-4.5 1-.2 0 3.5 0 .7 2A49.8 49.8 0 0 0 12.8 27C10 37 7.5 42.7 5.2 44.2 21.6 40.6 30 37.9 30.4 36l4-21.7V11z" fill="#6A8616" opacity="0.400000006" mask="url(#ap)"/>
      </g>
      <g transform="translate(49.7 18.9)">
        <mask id="ar" fill="#fff">
          <use xlink:href="#aq"/>
        </mask>
        <use fill="#9BC02C" xlink:href="#aq"/>
        <path d="M3.3 1.1C2.6 2.8 3 4.3 4.3 6c13 14.4 17.1 25 11.8 37.4C8 62.8 4.8 36.1 4.8 36.1l-7-19.3c-1-8.2-1-13.5 0-16 .8-2.6 2.7-2.5 5.5.3z" fill="#6A8616" opacity="0.400000006" mask="url(#ar)"/>
      </g>
    </g>
    <path d="M548 381.3c22.5-3.5 52.6 0 70.7 0 64.9 0 117.4 38.2 149.9 38.2 107.8 0 162.5-14 209-14.2 55-.2 99.5 22.9 145.5 23 10.6 0 51.9-12.5 65-13 54-2.1 94.1 4.5 127.9 4.2 50.8-.4 87 9 115.9 8.8 47.1-.4 137.7-25.4 129.2-18-8.2 7.2 10.7 7.7 16.6 5 19.8 5.3 37.8-21.2 56.5-25 4.4-.8 10.2 1.3 17.6-4 10.3-7.3 15.1-19 19.6-26.3 3.1-5.1 6.7-6.3 9.4-10.4 2.6-4 10.6-8.7 14.1-11.5 6.9-5.4 11.3 3.9 27.2 3.9 12 0 21.4 2.2 35 7.6 7.5 3 20.3 2.4 26.7 0 6.4-2.3 16.2-2.4 23.6-6 5.8-3 11.6-6 17.7-7.5 15-3.8 31.5.1 39-5 7.8-5.2 10.3-29.3 18.8-37 19-17.1 43.5-20 48.5-28.8 7.1-12.6 7.5-20 37.4-28.9 29.8-8.9 31.2-18 73.2-18 10 0 28.6 7.3 43.8 7.3 27.5 0 49.2-10.4 102.2-7.3 53 3 59.8 16.5 84 18 47.8 3 80.3-8.3 95.5-10.7 72.8-11 143 .9 154.5 10.7 25 21.5 25 85.5 0 191.9l-24 116H548c-145.9 4.5-237.4-2.4-274.5-20.8-37.1-18.4-29.6-53.1 22.5-104.2 18.5 4.8 43 4.9 73.5.2 45.8-6.9 156-34.8 178.5-38.2z" fill="#FFF"/>
    <g transform="translate(1145.6 302.5)">
      <ellipse fill="#F7E5AC" cx="39.6" cy="72.626652" rx="34.8" ry="3.00110132"/>
      <g transform="translate(13.1 1.6)">
        <mask id="at" fill="#fff">
          <use xlink:href="#as"/>
        </mask>
        <use fill="#ABD733" xlink:href="#as"/>
        <path d="M15 11.9A24 24 0 0 0 .2 1.9C-5.7.6-8.5 1.7-8 5l16.6 8.3 6.6-1.5z" fill="#6A8616" opacity="0.400000006" mask="url(#at)"/>
      </g>
      <g transform="translate(.2 10.7)">
        <mask id="av" fill="#fff">
          <use xlink:href="#au"/>
        </mask>
        <use fill="#9BC02C" xlink:href="#au"/>
        <path d="M26.5 2.4c-1 0-1.9-3.2-12.4 1.4-7 3.1-14 5-21 5.8a83 83 0 0 0 19.3 3.7 37 37 0 0 0 19.3-4.5c-.2-.3-4.4-6.4-5.2-6.4z" fill="#6A8616" opacity="0.400000006" mask="url(#av)"/>
      </g>
      <g transform="translate(27 12.2)">
        <mask id="ax" fill="#fff">
          <use xlink:href="#aw"/>
        </mask>
        <use fill="#A28047" xlink:href="#aw"/>
        <path d="M-.8 6.7C0 10 1.1 13.1 2.4 16c1.9 4.4 2.5 42.1.4 42.6a17 17 0 0 1-5.8 0 7.6 7.6 0 0 0 2.2 2.1C3.5 63 6.9 63 8 62c2-1.6 4.5-6.6 4.5-8 0-1.4.9-23-.7-28.7-1.6-5.8-7.4-16.5-7.4-17 0-.3-.9-1.3-2.6-3L-.8 6.8z" fill="#7B5B27" mask="url(#ax)"/>
      </g>
      <g transform="rotate(17 12.8 104.3)">
        <mask id="az" fill="#fff">
          <use xlink:href="#ay"/>
        </mask>
        <use fill="#9BC02C" xlink:href="#ay"/>
        <path d="M.7 12C11.3 3.6 19.1.9 24.2 3.8c5 3 7.3 4.7 6.8 5.3a28 28 0 0 1-4 1.7L8 13.2.6 12z" fill="#6A8616" opacity="0.400000006" mask="url(#az)"/>
      </g>
      <g transform="rotate(9 -48 177.2)">
        <mask id="aB" fill="#fff">
          <use xlink:href="#aA"/>
        </mask>
        <use fill="#ABD733" xlink:href="#aA"/>
        <path d="M1.8 2.3c5.6-2 11 .1 16.1 6.2 5 6 7.8 8.3 8.1 6.8-3 3.2-4.8 4.4-5.5 3.7-.6-.7-6.9-6.3-18.7-16.7z" fill="#6A8616" opacity="0.400000006" mask="url(#aB)"/>
      </g>
      <g transform="translate(9.3 12.2)">
        <mask id="aD" fill="#fff">
          <use xlink:href="#aC"/>
        </mask>
        <use fill="#ABD733" transform="rotate(-8 11.5 12.2)" xlink:href="#aC"/>
        <path d="M19.3 6.3c.6-2.5.7-4.1.5-4.7 0-.4 0-1.5-.5-1.7-.8-.3-2.3.7-2.5.6-.1 0 2 0 .4 1a28 28 0 0 0-10 13.6c-1.6 5.6-3 8.9-4.3 9.7 9.3-2 14-3.5 14.2-4.6L19.3 8V6.3z" fill="#6A8616" opacity="0.400000006" mask="url(#aD)"/>
      </g>
      <g transform="rotate(7 -79.9 236.2)">
        <mask id="aF" fill="#fff">
          <use xlink:href="#aE"/>
        </mask>
        <use fill="#9BC02C" xlink:href="#aE"/>
        <path d="M1.8.6c-.3 1-.1 1.8.7 2.7 7.2 8 9.6 14 6.6 21-4.7 11-6.4-4-6.4-4l-4-10.9a25 25 0 0 1 0-9C-.8-1 .3-.9 1.8.6z" fill="#6A8616" opacity="0.400000006" mask="url(#aF)"/>
      </g>
    </g>
    <path d="M1221 375.7c1.5 0 2 .6 3.2 1.3 1.2.7 3.6-.2 2.7 2.1-1 2.4-2.7 1.2-3.8 2-1.1 1 1.2 3.8-3.6 3.8-4.7 0-8.4-1-9.9-1.8s-4.7-1.4-7-1.4-3.8 1.4-6.5-.5c-2.6-2-4.4-2.4-6-2.4-1 0-2.2-1-3.7-3h34.6z" fill="#F7E5AC"/>
    <path d="M1185.2 377.1c0-1.2 2.2-5.6 4.9-5.6 1.2 0 2-1 3.9-1a7 7 0 0 0 2.2-.4c.6-2.6 1.9-4 3.8-4 2.9 0 4.6.5 5.6 2.2 1 1.7-.6 2 2.8 3.3 2 .9 2-.6 3.3 0 2 .9 1.2 2 2 2.4 1.1.6 2.1-.3 3 0 1 .4 2 1.8 2.5 1.2 1-1.2 2.3.5 2 1.2-.5.7-3 1.6-4 1.6h-4.7c-1.9 0-2.2-1.4-4.1 0-2 1.3-5.9 1.3-7.1 1.3l-4.1-.3s-4-1-6-1-6 .4-6-.9z" fill="#A8CD39"/>
    <path d="M1212 371.8c1.6.8 1 1.8 1.7 2.2 1.1.6 2.1-.3 3 0 1 .4 2 1.8 2.5 1.2 1-1.2 2.3.5 2 1.2-.5.7-3 1.6-4 1.6h-4.7c-1.9 0-2.2-1.4-4.1 0-2 1.3-5.9 1.3-7.1 1.3l-4.1-.3s-4-1-6-1-6 .4-6-.9c7.5-.1 11.5-1 12.3-3 1-2.7 2.3-3 4.3-2.4 2 .6 2.8 2.5 5.1 2.5 1.2 0 3-.8 5.1-2.4z" fill="#87A823"/>
    <path d="M1549.5 303.8l-1.2-1.2c0-.1 0-1-.6-1.8l-.4.8.2-.9-1.2-.6a8 8 0 0 0-1.8-.3l-.1 1-.2-1s-.6.1-1.2.7l-.7.6s.6.6 1.4.7l1 .1.2-.7v.7l1 .3c.2 0 1.9.6 2.3.6l1.3 1" fill="#ABD733"/>
    <path d="M1549.5 303.8s-.8-1.3-3-1.8c-2.1-.5-4.7.2-4.7.2a6.3 6.3 0 0 0 2.9 1.2v-1l.2 1s.3.2.8 0h1l.3-1v.9h1.1c.2.2.7.1 1 .2l.4.3" fill="#9BC02C"/>
    <path d="M1549.6 304s.5-2.4 1-3.8c.7-1.5 2.4-3.5 2.8-3.8l1.3-.7-.2 1.4c-.3.7-.8 1.2-.8 1.2l-.9-.4.8.6-.3.4-.6.6-1-.6.9.7-1.2 1.3-.7-.3.5.4h-.6l-1 3" fill="#ABD733"/>
    <path d="M1550 304.7c.2.2.2.9.2.9h-.1l.1 1h-.1l.1 1v2.8l.1 1h-.1l.1.9h-.1l.1 1v1.9c-.5.2-1.6 0-1.5 0l.1-1h-.1c0-.2 0-.6.2-.9l-.2-.1c0-.1 0-.6.2-.9h-.2c0-.2 0-.6.2-1h-.2c0-.1 0-.6.2-.9h-.2c0-.2 0-.7.2-1h-.2c0-.1 0-.6.2-.9h-.2c0-.2 0-.7.2-1h-.2c0-.1 0-.7.2-.9l-.2-.1c0-.1 0-.6.3-.9h-.2c0-.2 0-.7.2-1h-.2c0-.1 0-1 .3-1h.7c.3.1.3 1 .3 1h-.2z" fill="#7B5B27"/>
    <path d="M1549.4 303.8s-1.8-.8-2.5-.9a22 22 0 0 0-4.5.3c-1.2.2-2 .7-2 .7s1.8.4 2.5.4h.9v-1l.1 1a290.3 290.3 0 0 0 1.5 0l.1-1 .2 1 1-.1.4-.2.1-.7.1.8.5-.6 1.6.3" fill="#ABD733"/>
    <path d="M1549.6 303.7l1.2-2.4s.5-1 1.8-2.3c1.2-1.3 1.3-1.2 1.3-1.2l-.1.6.2-.6.8-.2h.7c.2 0 .4.3.1.8-.2.5-1.5 1.5-1.5 1.5h-1l1 .2-1 .7-.6.4h-1l.9.1s-.2.4-.7.5h-1l-1 2" fill="#9BC02C"/>
    <path d="M1549.6 304s-.5-2.4-1.1-3.8c-.6-1.5-2.4-3.5-2.8-3.8l-1.3-.7s0 .7.3 1.4c.2.7.7 1.2.7 1.2l.9-.4-.8.6.3.4.6.6 1-.6-.8.7 1.2 1.3.6-.3-.4.4h.5l1 3" fill="#ABD733"/>
    <path d="M1549.6 303.8v-2.5c0-.3-.3-.9-.1-1.8 0-1 .3-1.2.3-1.2l.5.5-.5-.7s.4-1.2.9-1.9l.7-1 .4.4-.2-.5.5-.3.7-.2v1l-.7 1.4-.7.2h.6l-.6 1.5a37 37 0 0 0-.8 1.6l-.7.6.6-.2-.6.5-.3 2.6" fill="#9BC02C"/>
    <path d="M1549.5 303.9v-2.5c0-.3.2-.9 0-1.8 0-1-.2-1.2-.2-1.2l-.6.5.5-.7-.8-1.9-.8-1-.3.4.2-.5-.6-.3-.6-.2v1c0 .4.6 1.3.6 1.4l.7.1-.6.1a19.8 19.8 0 0 0 1.5 3l.7.7-.6-.3.6.6.3 2.6" fill="#9BC02C"/>
    <path d="M1549.5 303.7l-1.2-2.4s-.5-1-1.7-2.3c-1.3-1.3-1.4-1.2-1.4-1.2l.2.6-.3-.6-.8-.2h-.7c-.2 0-.4.3-.1.8.2.5 1.5 1.5 1.5 1.5h1l-1 .2a51.2 51.2 0 0 0 1.6 1.1h1l-.9.1s.2.4.7.5h1l1 2" fill="#9BC02C"/>
    <path d="M1549.5 303.7l1.4-1s.2-1 1-1.5l.1.8v-.9l1.3-.4a8 8 0 0 1 1.9.1l-.1 1.1.4-1s.5.3 1 1l.6.7s-.8.5-1.5.4h-1l-.1-.8-.1.6-1 .2h-2.5l-1.4.7" fill="#ABD733"/>
    <path d="M1549.5 303.7s1-1.1 3.3-1.1a11 11 0 0 1 4.5 1.2s-1 .5-1.8.5h-1.2v-1l-.2 1s-.3.1-.8 0l-1-.4v-1l-.2.9-1.2-.2h-.9l-.5.1" fill="#9BC02C"/>
    <path d="M1549.6 303.7l2.6-.3c.7 0 3.3.7 4.4 1.2 1.1.5 1.7 1 1.7 1s-1.8.2-2.4 0l-.9-.2.2-1-.3 1-1-.2-.5-.2v-1l-.2 1s-.7-.1-1-.3a5 5 0 0 1-.4-.3v-.7l-.2.8-.3-.7h-1.7" fill="#ABD733"/>
    <path d="M1549.5 303.7l-.1-3c0-.2-.5-.5-.5-.8l-.1-.2.4-.8-.5.5v-1.7c0-.7.1-1.1.2-1.3l.5-.6-.6.3.2-.8c.1-.6.6-1 .7-1.1.1-.2.5.8.6 1.3.1.4 0 .8 0 .8l-.5-.5.5.7-.1 2.7-.5-.4.5.6v.5l-.6.8v3" fill="#ABD733"/>
    <path d="M1559.6 298.9l-.7-.6.7-.6 1-.5 1.3.2-.7-.4c1.5-.3 2.8.3 2.8.3s-.6 1.2-1.8 2c-1.1.8-3 1-3 1s-1-.7-.5-1.7l.9.3" fill="#9BC02C"/>
    <path d="M1566.3 301.3l-.4 1.3a5.4 5.4 0 0 1-1.6-.2v-.1l-.4-1.8-.4 1.6c-2-.7-4.3-2.1-4.3-2.1s2.6-.9 5.3-.2c2.7.7 3.5 2 3.5 2s-.5.5-1.6.7v-1.2" fill="#A8CD39"/>
    <path d="M1559.3 317.8c-.6 0-.5-.5-.5-.5s0-10 .2-13.4c.2-3.5.5-3.8.5-3.8l.4.3s-.5 10 0 16.7c0 .5.1.7-.6.7z" fill="#7B5B27"/>
    <path d="M1554.8 298.5l-1.2.7-.5-.2h-.7l.4-.7-.9.6h-1.3s1.4-2 2.9-2.3h.8l.5.4v-.5c.7 0 1.4.2 2.1.5l.6 1.2-.1-1 .6.4c1.3 1 1.6 2.5 1.6 2.5-2.4.9-4.1-.3-5.6-.8l.8-.8" fill="#A8CD39"/>
    <path d="M1552.4 300.6c1.5-1.7 5-1.3 6.8-.7 0 0-.5 1-3.2 1.6l-.6.2-.7-1 .4 1-1.4.8-.8-.7.3 1-1.2 1s-1-1.6.4-3.2" fill="#9BC02C"/>
    <path d="M1562.5 304.1l-1.4.5-.9-1.3 1-.7-1 .5c-.6-1-1.1-2.1-1.1-3.2 0 0 1.9.3 3.4 1.7l-.9-.2 1.2.5a6.3 6.3 0 0 1 1 1.4l-1-.4a49 49 0 0 0 1.1.7c.2.3.3.5.3.8l-.8-.3.9.6.2 1.3-.3 1.1s-2.1-.9-2.5-1.6c0-.2-.3-.4-.5-.7l1.3-.7" fill="#9BC02C"/>
    <path d="M1558.2 302.2l1 .5-.5 1.1-.8 1.6-.9-.5.7.7-.9 1.6s-1-.6-1.4-2l.3-.6h-.5a5 5 0 0 1-.1-.8c0-.6.1-1.2.5-1.8l1-.4-.9.2c1-1.3 2.7-2 3.6-2v2.5h-1.1" fill="#A8CD39"/>
    <g>
      <path d="M1648.4 331.5c0-1.2 2.2-5.6 4.9-5.6 1.2 0 2-1 3.9-1a7 7 0 0 0 2.2-.4c.6-2.7 1.9-4 3.8-4 2.9 0 4.6.5 5.6 2.2 1 1.6-.6 2 2.8 3.3 2 .9 2-.6 3.3 0 2 .9 1.2 2 2 2.4 1.1.6 2.1-.3 3 0 1 .3 2 1.8 2.5 1.2 1-1.2 2.3.5 2 1.2-.5.7-3 1.5-4 1.5h-4.7c-1.9 0-2.2-1.3-4.1 0-2 1.4-5.9 1.4-7.1 1.4l-4.1-.3s-4-1-6-1-6 .4-6-.9z" fill="#A8CD39"/>
      <path d="M1675.2 326.2c1.6.8 1 1.8 1.7 2.2 1.1.6 2.1-.3 3 0 1 .3 2 1.8 2.5 1.2 1-1.2 2.3.5 2 1.2-.5.7-3 1.5-4 1.5h-4.7c-1.9 0-2.2-1.3-4.1 0-2 1.4-5.9 1.4-7.1 1.4l-4.1-.3s-4-1-6-1-6 .4-6-.9c7.5-.1 11.5-1 12.3-3 1-2.7 2.3-3 4.3-2.4 2 .6 2.8 2.5 5.1 2.5 1.2 0 3-.8 5.1-2.4z" fill="#87A823"/>
    </g>
    <path d="M1711 311.5c0 1.3-3.5 3-2.4 6.4 1.2 3.5 10.7 2.7 15.3 1.4 4.6-1.4 6-1.4 13.2 0 7.3 1.3 15.3 0 19.1 0 3.9 0 4.8-2.7 13.2-1.4 8.3 1.4 14.2 1 12.4-.7-1.8-1.8-2.3-1.8-7.4-1.8-2.5 0-4.2-1.1-5.7-1.5-1.5-.3-2.9 0-4.8 0-1.8 0-3.1-.6-4.3-.7-1.3-.1-2.4.2-3.4-1.7-.5-1-1.6-1.9-1.8-2.7-.7-2.3-.4-3.9-4.8-3.9-2.2 0-2.7.7-4 .9-2.2.3-4.2.3-4.2 1.7 0 1.6-.6 1.7-2.1 2.4-.6.3-1 1.6-2.2 1.6-1.2 0-2.2-2-3.2-2.2-2.1-.5-3.8.3-4.7-.5-1.3-1.3-3.1-3.9-5.3-3.9-2.2 0-5.3 1.4-5.3 2.6 0 1.3.3 6.8-1.8 4-2-2.7-5.8-1.3-5.8 0z" fill="#A8CD39"/>
    <g>
      <path d="M1566.4 355.6c-.4 1.4-.8 3.1-1.1 5.3-.2 1.1-.5 1.4-1.1 3.6l-1.6 5.7c-.2.5-1 1.2-1 1.9-1.4.9-1.8 1.5-1.2 1.7.9.3 3.8-.1 3.8-.7-.3-.4-.4-.8-.2-1.2.3-.5-.2-1.5.3-2.3.5-.7 1.8-4.6 2.6-5.5.5-.4.3-2 .9-3.6l1.6-3.8-1.9-1.5-1 .4zM1582.4 353.4c-.9 1.7-1.2 2.8-.9 3.4.5.9 2 4.6 1.7 5.5-.3.9-1.4 6.3-1.1 8 0 .4-.6.8-.6 1.4 0 .7-1.3 1-.8 1.4.5.3 3.7.2 3.7 0v-1c0-.4-1-2.6-.5-4.2.5-1.7 2.1-3.9 2.1-4.5 0-.7-2-4 0-7 1.3-2 1-4.2-1-6.7l-2.6.9v2.8z" fill="#A59254"/>
      <g transform="translate(1547.6 338.5)">
        <mask id="aH" fill="#fff">
          <use xlink:href="#aG"/>
        </mask>
        <use fill="#CDB872" xlink:href="#aG"/>
        <path d="M5.3 7.7c1.9.3 3.2-.1 4-1.3-.4 1 0 4.6 1.7 6.9 1.5 2 4.1 2.7 6.2 3 .8 0 1.3-.5 1.5-1.8.5 1.6 1.1 2.5 2 2.7 1.3.4 2.4.2 3 2 .6 2 1.3 5.8 1.8 6.3s1.3 6.8 1.3 7.3c0 .6-1 1.4-1 2.3 0 .7-.9 1-2.9 1L2.7 17.7l2.6-10zM25.8 20.8s-.3-3.6-1.2-4.6c-.9-1-1-2.3-.5-2 .4.3.9 1.5 1.7 1.5 1 0 9.6-2 10.1-3.2.6-1.3.2-2.6.7-2.6.5 0 2.2 1.2 2.2 3 0 1.9.9 5.2 1.9 6.4 1 1.2 3.3 3.2 3.7 5L46 30l.1 2.3c.2.7-1.4 3.2-1.4 3.5 0 .2-.9 0-2.5-.6L40.7 30l-14.9-9.2z" fill="#A59254" mask="url(#aH)"/>
      </g>
    </g>
    <g>
      <path d="M1620 358.5c-.5 1.5-1 3.4-1.3 5.9l-1.3 3.9-1.7 6.3c-.3.5-1 1.2-1 2-1.6 1-2.1 1.7-1.4 2 1 .3 4.1-.2 4.1-.8-.3-.5-.4-1-.2-1.4.3-.6-.2-1.6.3-2.5.6-.8 2-5 3-6 .5-.5.3-2.3 1-4l1.7-4.2-2.1-1.6-1.2.4zM1637.5 356.1c-1 1.8-1.3 3-1 3.7.5 1 2.3 5 1.9 6-.4 1-1.6 7-1.3 8.8.2.5-.6 1-.6 1.7s-1.4 1.1-.9 1.4c.6.4 4 .3 4 0v-1c0-.4-1-2.9-.5-4.7.5-1.8 2.4-4.2 2.4-5 0-.7-2.2-4.3 0-7.6 1.4-2.2 1-4.7-1.1-7.4l-2.9 1v3.1z" fill="#A59254"/>
      <g transform="translate(1599.2 339.7)">
        <mask id="aJ" fill="#fff">
          <use xlink:href="#aI"/>
        </mask>
        <use fill="#CDB872" xlink:href="#aI"/>
        <path d="M5.9 8.5c2 .3 3.5-.2 4.3-1.4-.4 1.1 0 5 1.9 7.5 1.6 2.2 4.5 3 6.8 3.3.9.1 1.4-.5 1.7-1.9.5 1.7 1.2 2.7 2.1 3 1.5.3 2.7 0 3.3 2.2.7 2 1.5 6.3 2 6.9.6.5 1.5 7.4 1.5 8 0 .6-1 1.5-1 2.6 0 .7-1.1 1-3.3 1L3 19.5l2.9-11zM28.4 22.9s-.3-4-1.3-5c-1-1.2-1.1-2.6-.6-2.3.5.3 1 1.7 2 1.7.9 0 10.4-2.2 11-3.6.6-1.4.3-2.8.8-2.8s2.4 1.4 2.4 3.4 1 5.7 2 7c1.1 1.3 3.6 3.4 4.2 5.4l1.7 6.3c.2.8 0 1.7.2 2.5.1.8-1.7 3.5-1.7 3.9 0 .2-.9 0-2.7-.7L44.7 33 28.4 23z" fill="#A59254" mask="url(#aJ)"/>
      </g>
    </g>
    <g transform="matrix(-1 0 0 1 1734.8 295.3)">
      <path d="M24.1 35.7c0 .8-4.1 1.4-9.3 1.4-5.1 0-9.3-.6-9.3-1.4 0-.7 4.2-1.3 9.3-1.3 5.2 0 9.3.6 9.3 1.3" fill="#F7E5AC"/>
      <path fill="#608744" d="M14.3 6.2l.4-.2-.4.2"/>
      <path d="M12.7 4.8l.7-1.3a6.6 6.6 0 0 0-3.1-.8l-2 1 .9-1c-2.5.5-4.2 2-4.2 2s1.7 1.6 4 2.2c2.2.7 5-.2 5-.2s1-1.6-.1-2.8l-1.2.9" fill="#9BC02C"/>
      <path d="M2.7 8l.7 2.1A8.5 8.5 0 0 0 6 9.8v-.2l.7-3 .6 2.7c3.2-1.2 6.9-3.5 6.9-3.5S10 4.4 5.7 5.5C1.3 6.6 0 8.8 0 8.8s.7 1 2.5 1.2V8" fill="#A8CD39"/>
      <path d="M14.2 35.5c1.5 0 1.3-.7 1.3-.7s.1-16.6-.4-22.5C14.5 6.5 13.9 6 13.9 6l-.9.5s1 16.7 0 27.9c0 .8-.3 1.1 1.2 1.1z" fill="#7B5B27"/>
      <path d="M21.3 6.3l1.3 1.6 1 .2 1 .3-.2-1.3 1 1.5 2 .7s-.9-4-3-5.2a11 11 0 0 0-1.1-.6l-1.1.4.4-.6a9.8 9.8 0 0 0-3.5-.7l-1.7 1.5.8-1.4-1.1.2c-2.6.7-4 2.9-4 2.9 3 2.8 6.3 2.1 8.9 2.1l-.7-1.6" fill="#A8CD39"/>
      <path d="M24.5 8.7C22.8 5.6 17.2 5 14 5.4c0 0 .5 1.7 4.5 3.7l.9.5 1.5-1.3-1.1 1.5c.8.5 1.4 1 2 1.6l1.6-.9-1 1.6c1 1 1.7 2 1.7 2s2-2.2.4-5.4" fill="#9BC02C"/>
      <path d="M9 12.7l2.2.7 1.4-2.1-1.6-1 1.7.7c1-1.6 1.7-3.6 1.7-5.4 0 0-3 .6-5.6 3l1.4-.3-1.7.6a10.2 10.2 0 0 0-1.7 2.4l1.5-.6-1.7 1.1-.5 1.3 1.3-.4-1.4.9c-.3 1.3-.3 2.2-.3 2.2l.4 2s3.5-1.6 4.1-2.8l.7-1.1-2-1.2" fill="#9BC02C"/>
      <use fill="#A8CD39" xlink:href="#aK"/>
    </g>
    <g>
      <path d="M1749.4 314.8l-2.3-2.4c-.1 0-.1-1.8-1.3-3.2l-.7 1.4.4-1.6s-1.3-.8-2.5-1.2c-1.1-.5-3.6-.6-3.6-.6l-.3 2-.3-2s-1.2.3-2.5 1.3a8.7 8.7 0 0 0-1.3 1.3s1.2 1 2.7 1.3l2 .2.6-1.3-.1 1.2 1.8.6c.6.1 4 1.2 4.8 1l2.6 2" fill="#ABD733"/>
      <path d="M1749.4 314.8s-1.6-2.5-6-3.5c-4.3-1-9.4.5-9.4.5a13 13 0 0 0 5.7 2.2l.3-2 .2 2s.5.3 1.6.2l2-.3.5-1.6v1.6l2.4.1c.3.1 1.3 0 1.7.2l1 .6" fill="#9BC02C"/>
      <path d="M1749.5 315s1-4.3 2.2-7c1.2-2.8 4.8-6.6 5.5-7.1.6-.5 2.6-1.3 2.6-1.3s0 1.3-.5 2.6-1.4 2.3-1.4 2.3l-1.8-.8 1.5 1s-.6.7-.6.9l-1.2 1.1-2-1.1 1.7 1.3-2.4 2.4-1.3-.5 1 .7h-1.2l-2 5.5" fill="#ABD733"/>
      <path d="M1759.3 336.3c0 .7-4.2 1.4-9.4 1.4s-9.5-.7-9.5-1.4c0-.8 4.3-1.4 9.5-1.4s9.4.6 9.4 1.4" fill="#F7E5AC"/>
      <path d="M1750.5 316.5c.3.4.3 1.7.3 1.7h-.3c.3.5.3 1.8.3 1.8h-.2c.3.5.3 1.8.3 1.8h-.3c.3.6.3 1.8.3 1.8h-.2c.2.6.2 1.8.2 1.8h-.2c.3.6.3 1.8.3 1.8h-.3c.3.6.3 1.8.3 1.8h-.2c.2.7.2 1.8.2 1.8h-.2c.2.7.2 1.8.2 1.8h-.2c.3.7.3 1.8.3 1.8h-.2c.2.7.2 1.8.2 1.8-1.1.4-3.3.2-3.2-.1.1-.2.1-1 .4-1.6-.2 0-.4-.1-.3-.2 0-.2 0-1 .3-1.6-.2 0-.3-.1-.3-.2 0-.2 0-1 .3-1.6-.2 0-.3-.1-.3-.2 0-.2 0-1.1.4-1.6-.3 0-.4-.1-.4-.2 0-.2.1-1.1.4-1.6-.3 0-.4-.1-.4-.2.1-.2.1-1.1.4-1.6l-.4-.2c.1-.2.1-1.2.4-1.6-.2 0-.4-.1-.3-.2 0-.2 0-1.2.4-1.6-.3 0-.4-.1-.4-.2 0-.2 0-1.2.4-1.6-.3 0-.4-.1-.4-.2 0-.2 0-1.2.4-1.6l-.4-.2c0-.2.1-1.2.5-1.6-.3 0-.5-.1-.5-.2.1-.3.1-1.7.7-1.7h1.5c.5 0 .5 1.8.5 1.8h-.3z" fill="#7B5B27"/>
      <path d="M1749.1 314.8s-3.5-1.5-5-1.6c-1.4-.2-6.6 0-9 .4-2.3.5-3.8 1.3-3.8 1.3s3.6.8 4.9.9h1.8v-2l.2 2a615.8 615.8 0 0 0 3-.1l.3-2 .2 2s1.4 0 2-.2l1-.3.2-1.4.1 1.5 1-1.1c0-.2 3.1.6 3.1.6" fill="#ABD733"/>
      <path d="M1749.7 314.7s1.4-3.3 2.3-4.7c0 0 1-1.8 3.5-4.2 2.6-2.4 2.7-2.3 2.7-2.3l-.3 1 .5-1 1.6-.4c.4-.2 1-.2 1.4-.2.4 0 .8.7.3 1.7s-3 3-3 3h-2.2l2.1.2-2 1.4-1.1.7h-2l1.7.2s-.3.7-1.3.8c-1 .2-2 0-2 0l-2.2 3.8" fill="#9BC02C"/>
      <path d="M1749.5 315s-1-4.3-2.2-7a26.8 26.8 0 0 0-5.4-7.1c-.7-.5-2.6-1.3-2.6-1.3s-.1 1.3.4 2.6c.6 1.3 1.5 2.3 1.5 2.3l1.8-.8-1.6 1 .7.9 1.2 1.1 2-1.1-1.8 1.3s2 1.8 2.4 2.4l1.4-.5-1 .7h1.2l2 5.5" fill="#ABD733"/>
      <path d="M1749.6 314.8V310c0-.6-.5-1.7-.3-3.4.2-1.8.6-2.2.6-2.2l1.2.9-1-1.4s.8-2.2 1.7-3.5a12 12 0 0 1 1.5-1.9l.6.8-.4-1 1.1-.5 1.3-.4s.2.9 0 1.7c-.1.9-1.2 2.6-1.2 2.7 0 .2-1.5.4-1.5.4l1.2.1-1.3 2.8-1.5 3-1.4 1 1.1-.3-1.1 1c-.2.2-.6 4.9-.6 4.9" fill="#9BC02C"/>
      <path d="M1749.3 315v-4.8c0-.6.5-1.6.3-3.4-.3-1.7-.6-2.2-.6-2.2l-1.2 1 1-1.5s-.8-2.1-1.7-3.4a12 12 0 0 0-1.5-1.9l-.7.7.5-1-1.1-.5c-.4-.2-1.4-.3-1.4-.3v1.7c.2.8 1.3 2.6 1.3 2.7l1.5.3-1.2.2a36.3 36.3 0 0 0 2.8 5.7l1.4 1.1-1.1-.4 1.1 1c.2.2.6 5 .6 5" fill="#9BC02C"/>
      <path d="M1749.4 314.7s-1.5-3.3-2.4-4.7c0 0-1-1.8-3.5-4.2-2.5-2.4-2.6-2.3-2.6-2.3l.2 1-.4-1-1.7-.4c-.4-.2-1-.2-1.4-.2-.4 0-.7.7-.2 1.7.4 1 3 3 3 3h2.1l-2 .2 1.9 1.4 1.2.7h2l-1.8.2s.4.7 1.4.8c1 .2 2 0 2 0l2.2 3.8" fill="#9BC02C"/>
      <path d="M1749.4 314.6l2.7-1.8c.1 0 .5-1.8 2-2.9l.4 1.5-.1-1.7s1.4-.5 2.6-.7c1.3-.2 3.7.2 3.7.2l-.1 2 .7-1.9s1.2.5 2.2 1.8c1 1.3 1 1.5 1 1.5s-1.4.8-3 .7c-1.5 0-1.9-.2-1.9-.2l-.3-1.4-.2 1.3-2 .2c-.4 0-4 .4-4.8 0l-2.9 1.4" fill="#ABD733"/>
      <path d="M1749.4 314.6s2-2.1 6.5-2.2a23 23 0 0 1 9.2 2.4s-2 .8-3.8 1h-2.3l.2-2-.6 2s-.6.1-1.6-.2l-2-.7-.2-1.7-.2 1.5-2.4-.3c-.4 0-1.3-.2-1.8-.1-.4 0-1 .3-1 .3" fill="#9BC02C"/>
      <path d="M1749.6 314.7s3.8-.7 5.2-.6c1.5 0 6.5 1.3 8.8 2.2 2.2 1 3.5 2 3.5 2s-3.7.2-5 0l-1.7-.4.3-2-.6 1.9-1.9-.4-1-.3.2-2-.7 2s-1.3-.3-1.8-.6l-1-.5v-1.4l-.4 1.4-.6-1.2c0-.3-3.3-.1-3.3-.1M1749.4 314.6l-.3-5.8c0-.2-.8-.8-1-1.3l-.1-.5.9-1.5-1 1s-.2-2 0-3.3c0-1.3.2-2 .2-2.3 0-.2 1.2-1.3 1.2-1.3l-1.2.7s0-.6.3-1.6 1.2-1.8 1.4-2c.2-.4 1 1.5 1.2 2.4.2.9.1 1.5.1 1.5l-1.1-.8 1 1.2-.2 5-1-.6 1 1.1s0 .6-.2 1c0 .3-1 1.4-1 1.4l-.2 5.7" fill="#ABD733"/>
    </g>
    <g>
      <path d="M1226.2 363.7h.2c2.3 0 4.2 2.4 5.6 7.2l-4.2-1.4v6.5h-1.2v-7l-2-.6c-.6-.2-1-.7-1-1.3 0-1.5.3-2.6 1.3-3 .5-2.3.7-3.7.7-4.1 0-.2-.9 0-.9 0-.2-.5-1 .3-1.3.5-1 .4-1.7.5-2 .3 1-1.2 1.7-1.8 2.1-1.8.3 0 .7-1 1.2-1.3.8-.4 1.7 0 1.7 1.4s0 3-.2 4.6z" fill="#D5AC00"/>
      <path fill="#F7E5AC" d="M1226.6 375.7h1.2v2.4h-1.2z"/>
      <path d="M1235.8 362.5h.2c2.3 0 4.2 2.4 5.6 7.2l-4.2-1.4v6.5h-1.2v-7l-2-.6c-.6-.2-1-.7-1-1.3 0-1.5.3-2.6 1.3-3 .5-2.3.7-3.7.7-4.1 0-.2-.9 0-.9 0-.2-.5-1 .3-1.3.5-1 .4-1.7.5-2 .3 1-1.2 1.7-1.8 2.1-1.8.3 0 .7-1 1.2-1.3.8-.4 1.7 0 1.7 1.4s0 3-.2 4.6z" fill="#D5AC00"/>
      <path fill="#F7E5AC" d="M1236.2 374.5h1.2v2.4h-1.2z"/>
      <path d="M1240.2 363.7h-.2c-2.3 0-4.2 2.4-5.6 7.2l4.2-1.4v6.5h1.2v-7l2-.6c.6-.2 1-.7 1-1.3 0-1.5-.3-2.6-1.3-3-.5-2.3-.7-3.7-.7-4.1 0-.2.9 0 .9 0 .2-.5 1 .3 1.3.5 1 .4 1.7.5 2 .3-1-1.2-1.7-1.8-2.1-1.8-.3 0-.7-1-1.2-1.3-.8-.4-1.7 0-1.7 1.4s0 3 .2 4.6z" fill="#D5AC00"/>
      <path fill="#F7E5AC" d="M1239.8 375.7h-1.2v2.4h1.2z"/>
      <path d="M1245.4 363.7h.2c2.3 0 4.2 2.4 5.6 7.2l-4.2-1.4v6.5h-1.2v-7l-2-.6c-.6-.2-1-.7-1-1.3 0-1.5.3-2.6 1.3-3 .5-2.3.7-3.7.7-4.1 0-.2-.9 0-.9 0-.2-.5-1 .3-1.3.5-1 .4-1.7.5-2 .3 1-1.2 1.7-1.8 2.1-1.8.3 0 .7-1 1.2-1.3.8-.4 1.7 0 1.7 1.4s0 3-.2 4.6z" fill="#D5AC00"/>
      <path fill="#F7E5AC" d="M1245.8 375.7h1.2v2.4h-1.2z"/>
      <g>
        <path d="M1271.4 363.7h-.2c-2.3 0-4.2 2.4-5.6 7.2l4.2-1.4v6.5h1.2v-7l2-.6c.6-.2 1-.7 1-1.3 0-1.5-.3-2.6-1.3-3-.5-2.3-.7-3.7-.7-4.1 0-.2.9 0 .9 0 .2-.5 1 .3 1.3.5 1 .4 1.7.5 2 .3-1-1.2-1.7-1.8-2.1-1.8-.3 0-.7-1-1.2-1.3-.8-.4-1.7 0-1.7 1.4s0 3 .2 4.6z" fill="#D5AC00"/>
        <path fill="#F7E5AC" d="M1271 375.7h-1.2v2.4h1.2z"/>
      </g>
      <g>
        <path d="M1263 363.7h-.2c-2.3 0-4.2 2.4-5.6 7.2l4.2-1.4v6.5h1.2v-7l2-.6c.6-.2 1-.7 1-1.3 0-1.5-.3-2.6-1.3-3-.5-2.3-.7-3.7-.7-4.1 0-.2.9 0 .9 0 .2-.5 1 .3 1.3.5 1 .4 1.7.5 2 .3-1-1.2-1.7-1.8-2.1-1.8-.3 0-.7-1-1.2-1.3-.8-.4-1.7 0-1.7 1.4s0 3 .2 4.6z" fill="#D5AC00"/>
        <path fill="#F7E5AC" d="M1262.6 375.7h-1.2v2.4h1.2z"/>
      </g>
      <g>
        <path d="M1271.8 365h.2c2.3 0 4.2 2.3 5.6 7.1l-4.2-1.4v6.5h-1.2v-7l-2-.6c-.6-.2-1-.7-1-1.3 0-1.5.3-2.6 1.3-3 .5-2.3.7-3.7.7-4.1 0-.2-.9 0-.9 0-.2-.5-1 .3-1.3.5-1 .4-1.7.5-2 .3 1-1.2 1.7-1.8 2.1-1.8.3 0 .7-1 1.2-1.3.8-.4 1.7 0 1.7 1.4s0 3-.2 4.6z" fill="#D5AC00"/>
        <path fill="#F7E5AC" d="M1272.2 377h1.2v2.3h-1.2z"/>
      </g>
      <g>
        <path d="M1281.4 362.5h.2c2.3 0 4.2 2.4 5.6 7.2l-4.2-1.4v6.5h-1.2v-7l-2-.6c-.6-.2-1-.7-1-1.3 0-1.5.3-2.6 1.3-3 .5-2.3.7-3.7.7-4.1 0-.2-.9 0-.9 0-.2-.5-1 .3-1.3.5-1 .4-1.7.5-2 .3 1-1.2 1.7-1.8 2.1-1.8.3 0 .7-1 1.2-1.3.8-.4 1.7 0 1.7 1.4s0 3-.2 4.6zM1387 362.5h.2c2.3 0 4.2 2.4 5.6 7.2l-4.2-1.4v6.5h-1.2v-7l-2-.6c-.6-.2-1-.7-1-1.3 0-1.5.3-2.6 1.3-3 .5-2.3.7-3.7.7-4.1 0-.2-.9 0-.9 0-.2-.5-1 .3-1.3.5-1 .4-1.7.5-2 .3 1-1.2 1.7-1.8 2.1-1.8.3 0 .7-1 1.2-1.3.8-.4 1.7 0 1.7 1.4s0 3-.2 4.6z" fill="#D5AC00"/>
        <path fill="#F7E5AC" d="M1281.8 374.5h1.2v2.4h-1.2z"/>
      </g>
    </g>
    <path fill="#CDB872" d="M1460.3 279.8h61.3v1.4h-59.3zM1459.1 289.4h63.7v1.4h-61.6zM1455.5 299h68.5v1.4h-66.3z"/>
    <g>
      <use fill="#9BC02C" xlink:href="#aL" transform="matrix(-1 0 0 1 1477.6 298)"/>
      <use fill="#A8CD39" xlink:href="#aM" transform="matrix(-1 0 0 1 1481.6 300.6)"/>
      <use fill="#7B5B27" xlink:href="#aN" transform="matrix(-1 0 0 1 1474.2 301)"/>
      <path fill="#608744" d="M1472.7 301.4h-.2.2"/>
      <use fill="#A8CD39" xlink:href="#aO" transform="matrix(-1 0 0 1 1473.5 297.7)"/>
      <use fill="#9BC02C" xlink:href="#aP" transform="matrix(-1 0 0 1 1473 300.4)"/>
      <use fill="#9BC02C" transform="scale(-1 1) rotate(-8 1417.3 10732.2)" xlink:href="#aQ"/>
      <use fill="#A8CD39" xlink:href="#aR" transform="matrix(-1 0 0 1 1473 300.9)"/>
    </g>
    <path d="M1685.2 207.2l6.6-2h1.4c.1.2.3.6.3 1.3-4.3 4.3-7.3 13.9-9 28.8-2.5 22.3-4.7 40.3-13 47.2-1.1-.7-1.6-1.1-1.7-1.4-.4-3.8.9-5.5.9-5.5l-4.7 2.2c-1.1-.8-1.6-1.2-1.5-1.4.2-.3 8.3-10.2 9.6-16.2 2.2-9.5 3.8-27.5 5.7-40.3 1.3-8.5 3-12.8 5.4-12.7z" fill="#B29000"/>
    <path d="M1686.6 207.2l5.7-1.8.6 1c-2.6 4.4-3.8 14-2.7 28.9 1.6 22.3 1.7 29 .6 47.2l-.5-1.2c-1-3.9-1.1-5.7-1.1-5.7a20.4 20.4 0 0 0-2.9 2.2c-.4-.7-.6-1.2-.5-1.3.1-.3.6-10.3.7-16.3.1-9.5-1.5-27.5-2-40.3-.4-8.5.4-12.8 2.1-12.7z" fill="#3F3F3F" opacity="0.0775022645"/>
    <path d="M1683.5 206l8.4-.7c-4.4 4.3-7.4 13.9-9 28.8-2.5 22.3-4.8 40.3-13.2 47.2l-.7-6.9-4.6 2.2c4-5.4 6.6-11.3 8-17.6 2.2-9.5 3.8-27.5 5.7-40.3 1.3-8.5 3-12.8 5.4-12.7z" fill="#D5AC00"/>
    <g transform="translate(1399 234)">
      <g transform="translate(0 19.2)">
        <path d="M42 196.7c9.1 0 19.6.6 27.1 0 16.4-1.5 25.6-5.3 25.6-8.4 0-3-18.6-7-33-8.4-8.3-1-9 0-19.8 0H20.8c-18-.4-20.8-.9-20.8 2.5 0 4.6 12.8 14.3 42 14.3z" fill="#FBFBFB"/>
        <mask id="aT" fill="#fff">
          <use xlink:href="#aS"/>
        </mask>
        <use fill="#EDC001" xlink:href="#aS"/>
        <path d="M53.7 1c-.2 1.2-4.5 1.8-5.7.9-.8 10-2.6 15-3.4 16.3-.8 1.6-3.7.1-8.5-4.5 10.3 6 17.1 8.7 20.3 8.2 4.3-.8 8.4-12.9 8.4-13 0-.4-11-8.4-11.1-7.8z" fill="#D5AC00" mask="url(#aT)"/>
      </g>
      <g transform="translate(28.8 9.6)">
        <mask id="aV" fill="#fff">
          <use xlink:href="#aU"/>
        </mask>
        <use fill="#FDC987" xlink:href="#aU"/>
        <path d="M9 9.4c-.3 1.7-.1 3 .5 4.3 1 1.8 2.6 1.3 3.6 1.3.7 0 1 .4 1 1.2-1.3 3.2-3.2 4.5-5.7 4-3.8-.8-8.6-1.9-9-3.3-.4-1.3-.8-3.2-.4-4l.8-1.2L9 9.4z" fill="#E9AF64" mask="url(#aV)"/>
      </g>
      <g transform="translate(24 3.6)">
        <mask id="aX" fill="#fff">
          <use xlink:href="#aW"/>
        </mask>
        <use fill="#7B6F5C" xlink:href="#aW"/>
        <path d="M10.5 17c-1-1-1.4-2.4 0-4.4 1-1.3 3.4-2.5 7.5-3.7.1-2.1-.2-3.2-1.1-3.2-1.4 0-17.4-.3-18.3 0-.9.4-3.6 1.6-3 2.8L0 15c1.5 2.5 5.8 5.6 8 6 2.3.5 4.7-1.3 4.7-1.7 0-.3-1.3-1.5-2.2-2.5z" fill="#433622" mask="url(#aX)"/>
      </g>
      <path d="M13.3 193.6h6.8s2.4 0 2.4 2.2c0 2.3.7 3.8 1.5 6 .8 2.3.3 4.7-.8 5.3-1 .6-8.4.7-10 0-1.5-.8-2.3-.8-2.3-4.5 0-3.8 2.4-9 2.4-9zM40.1 198s-1.5 11.6-.7 13.1c.3.7 3 1.3 6.5 1.2.8 0 1.5-.4 2.3-.5 2.1-.1 4.2-.8 5.8-1.1 1.7-.3 5.6-.5 5.8-.7.8-.4 2-1.3 1.1-3-.4-1-5.1-.7-6.1-1.7-1.9-1.8-5.4-3.4-5.4-4v-3.7l-9.3.3z" fill="#59421D"/>
      <g transform="translate(10.8 190.9)">
        <mask id="aZ" fill="#fff">
          <use xlink:href="#aY"/>
        </mask>
        <use fill="#7B5B27" xlink:href="#aY"/>
        <path d="M11.6 2.7c-.6 0-7.5-2-8.1-1.4-.3.2-.5 1-.7 2.1-.3 1.8-.6 4.1-.6 5 0 1.6 1.5 9.5 3.4 8.4.8-.5 3-.7 6-1.6l6.2-2.6c-4.2 3.8-7.4 5.6-9.7 5.6-3.4 0-10.3 3.4-13.5-1.4-3.3-4.8-6.7-8.1-5-10.7 1.7-2.6.3-3.8 4.5-4.8S3.4 0 5.6.3a18 18 0 0 1 6 2.4z" fill="#A28047" mask="url(#aZ)"/>
      </g>
      <g transform="translate(55.2 8.4)">
        <mask id="bb" fill="#fff">
          <use xlink:href="#ba"/>
        </mask>
        <use fill="#7B6F5C" xlink:href="#ba"/>
        <path d="M.4 3.7c2.7-1.6 4.7-1.5 6 .5 1.7 3 4 3.7 13.3 3.7h6.9c0 3-.6 4.5-1.7 4.5-1.7 0-25.3 0-25.6-.5L-1.2 9 .4 3.7z" fill="#433622" mask="url(#bb)"/>
      </g>
      <path d="M70 20.7c0-1.6.6-2.8 1.7-3.5 1.6-1.1 1.5-2.8 2.5-3.7 1-.9 5-2 5 0s0 4.7-2 5.7c-1.2.7-1.8 2.3-1.8 4.8l-4.7-2-.6-1.3z" fill="#FDC987"/>
      <g transform="translate(38.4 195.7)">
        <mask id="bd" fill="#fff">
          <use xlink:href="#bc"/>
        </mask>
        <use fill="#7B5B27" xlink:href="#bc"/>
        <path d="M4.2 9.3c-.7 2.9-1.8 8.2-3.3 7-1.4-1.3-4.8-5.8-3.8-8.5 1-2.6 1.2-4.6 3.8-5 2.7-.5 4.1.7 4.8.7.3 0 2.3.6 2.3 2 0 1.2-3.2 1-3.8 3.8z" fill="#A28047" mask="url(#bd)"/>
      </g>
      <g transform="translate(9.8 108.7)">
        <mask id="bf" fill="#fff">
          <use xlink:href="#be"/>
        </mask>
        <use fill="#7B6F5C" xlink:href="#be"/>
        <path d="M14 81.7s-1.3 3.5-2.4 3.7c-1 .2-7.1 9-9.1-2.4s.7-16 3.1-31.8c1.1-7.2.7-17 1.2-22.8.7-7 2.2-9.5 2.2-9.5L-2.7 7.4l49.2.7s2.6 1.2.7 3c-1 1 2.8 2 2.8 3.6 0 4.3 3 31.3 3 31.7 1.1 5.7-11.8 38.3-11.8 38.3s-.5 1.1-1.1 1.2c-.6.1-6.2 12.8-9.6-1.2-2.8-11.2-1.6-8.5 0-20.6 1.4-10.7-5.4-22.2-5.3-25.3.6-15.3-11.1 43-11.1 43z" fill="#433622" mask="url(#bf)"/>
      </g>
      <g transform="translate(9.6 19)">
        <mask id="bh" fill="#fff">
          <use xlink:href="#bg"/>
        </mask>
        <use fill="#EDC001" xlink:href="#bg"/>
        <path d="M41.8 15.3s8.9 8.7 12.1 23.5c8.8-5.7 5-41 10-43.2 9.9-4.6 22-1.1 23 3.2 5.6 22.2-27 94.6-34.3 114-3.5 9.5-24.5 1.7-36-3-3.6-1.4-6.1-1.6-7.8-2.4-2.7-.2 5.5-29 3-32.1-14.4-4.6 3.4-57.1 4.8-59.2 1.6-2.3 3-1.7 4.3-3 .8-1 .2-4.6 1.3-5.7 8.2-8 23.7-16.8 23.7-10.3 0 9-4.1 18.2-4.1 18.2z" fill="#D5AC00" mask="url(#bh)"/>
      </g>
      <path d="M47.1 20.2c-1.1-3.5-1.1-6.2 0-8 1.7-2.7 7.8 0 6.9 1-1 1-2 .9-2 4.8 0 2.6-1.6 3.3-4.9 2.2z" fill="#FDC987"/>
      <path d="M43.9 39s0-6 4.2-6c0 0-2.4-.6-2.7-.9-.3-.3-4 2.7-4.2 6.3-.3 3.6 2.7.6 2.7.6zM20 39s-1-5.7 2.4-6.6L20 33c-1.2.3-2.1 1.8-2.4 5.4-.3 3.6 2.4.6 2.4.6z" fill="#6B5023"/>
      <rect fill="#A28047" x="9.08256881" y="42.6156388" width="13.3211009" height="36.0132159" rx="4.80000019"/>
      <path d="M43.5 85a25.2 25.2 0 0 0 13.4-14.5c-.4-.1-.9-1.9-1.6-1.7-.5.1-1.5 2.7-2.5 3.4l-10 7.5" fill="#6B5023"/>
      <rect fill="#83642F" x="39.3577982" y="42.6156388" width="13.3211009" height="36.0132159" rx="4.80000019"/>
      <path d="M12.7 75c-.3-3.2-.7-3.2-.9-7.2 0-2 1-4.4 1-6.3-.4-7-1-10.6-1-15 0-4.1 1.5-5.2 1.5-5.2a12 12 0 0 1 7.2-4.9c6 0 17.7-.3 17.7-.3a9 9 0 0 1 7.2 4s1.8 3 1.8 3.4c0 4.3-1.8 28.5-1.8 41.4l-.5 2.3a6 6 0 0 1-5.8 4.5l-19.2-.4a6 6 0 0 1-5.6-4.8s-1.2-7.1-1.6-11.5z" fill="#83642F"/>
      <path d="M44.1 15.7c0 .7.6 1.3 1.4 1.4l13.4.4c1.4-.2 2-1.2 2-3 0-1.5-1.7-2.3-2.2-2.3-.9 0-5.3.6-13.2 2-.8 0-1.4.7-1.4 1.5z" fill="#7B6F5C"/>
      <path d="M14 74.7c-.2-2.3-1.2-5-1.3-7.5 0-1.7 1-4.2 1-6l-.3-12.1c0-4 21.7-3.6 21.7-3.6 2.3 0 4.6-1.8 5.2-4l.2-1c.4-1.7 1-1.7 1.5-.1 0 0 .4.6.4 2.8 0 1 .2 8.5 2.1 8.7 2.2.3 1.8-2.7 4.2 0a75 75 0 0 1 0 24.6c-4.5 3-6.3-1.2-6.3 1.2v4.8c0 5.2-.5 5.8-.5 5.8a4 4 0 0 1-3.7 2.9l-19.5-.5c-2.3 0-4.2-2-4.3-4.3 0 0 0-4.8-.5-11.7z" fill="#6B5023"/>
      <use fill="#000" filter="url(#bi)" xlink:href="#bj"/>
      <use stroke="#EDC001" stroke-width="0.600000024" fill="#D5AC00" xlink:href="#bj"/>
      <use fill="#000" filter="url(#bk)" xlink:href="#bl"/>
      <use stroke="#EDC001" stroke-width="0.600000024" fill="#D5AC00" xlink:href="#bl"/>
      <g transform="rotate(-3 49.3 -222.5)">
        <mask id="bn" fill="#fff">
          <use xlink:href="#bm"/>
        </mask>
        <use fill="#83642F" xlink:href="#bm"/>
        <path d="M26.4 0a37.8 37.8 0 0 0-8.6 3.5c-4.2 3.4-2.5 5.6-1.3 5.7h6.6c6.3-.3 4.6.8-5.3 3C5.7 16-.8 16.7-1.6 14.2c-1.3-3.8-.7-5.6.5-5.6L6.2 8c2.2-5 4.4-8 6.4-8.8 2-.8 6.6-.6 13.8.6z" fill="#A28047" mask="url(#bn)"/>
      </g>
      <ellipse fill="#433622" cx="45.6" cy="15.6057269" rx="1.2" ry="1.20044053"/>
    </g>
  </g>
</svg>
